<svg width="82" height="96" viewBox="0 0 82 96" fill="none" xmlns="http://www.w3.org/2000/svg">
<path d="M23.1811 4.15519e-05L81.529 86.731C78.5941 88.7066 75.4676 90.3813 72.1968 91.7298C65.8857 94.325 59.1254 95.6521 52.3016 95.6355C42.1628 95.6199 32.246 92.6643 23.7529 87.1268C20.8793 85.2495 18.1985 83.0924 15.7499 80.6869C10.6953 75.71 6.69594 69.7651 3.9908 63.2076C1.39512 56.8965 0.0676016 50.1359 0.0839971 43.3118C0.100079 33.1734 3.056 23.2571 8.59362 14.7645C10.471 11.8907 12.6283 9.20988 15.0339 6.7612C17.5156 4.23974 20.2451 1.97483 23.181 0.000812409L23.1811 4.15519e-05Z" fill="#FBE091"/>
</svg>
