<svg width="36" height="36" viewBox="0 0 36 36" fill="none" xmlns="http://www.w3.org/2000/svg">
<g opacity="0.4">
<path d="M24 19.5H19.5C18.675 19.5 18 20.175 18 21V25.5C18 26.325 18.675 27 19.5 27H24C24.825 27 25.5 26.325 25.5 25.5V21C25.5 20.175 24.825 19.5 24 19.5ZM24 4.5V6H12V4.5C12 3.675 11.325 3 10.5 3C9.675 3 9 3.675 9 4.5V6H7.5C5.835 6 4.515 7.35 4.515 9L4.5 30C4.5 31.65 5.835 33 7.5 33H28.5C30.15 33 31.5 31.65 31.5 30V9C31.5 7.35 30.15 6 28.5 6H27V4.5C27 3.675 26.325 3 25.5 3C24.675 3 24 3.675 24 4.5ZM27 30H9C8.175 30 7.5 29.325 7.5 28.5V13.5H28.5V28.5C28.5 29.325 27.825 30 27 30Z" fill="black"/>
</g>
</svg>
