<svg width="12" height="14" viewBox="0 0 12 14" fill="none" xmlns="http://www.w3.org/2000/svg">
<path opacity="0.3" d="M8.66667 7.7H6.66667C6.3 7.7 6 8.015 6 8.4V10.5C6 10.885 6.3 11.2 6.66667 11.2H8.66667C9.03333 11.2 9.33333 10.885 9.33333 10.5V8.4C9.33333 8.015 9.03333 7.7 8.66667 7.7ZM8.66667 0.7V1.4H3.33333V0.7C3.33333 0.315 3.03333 0 2.66667 0C2.3 0 2 0.315 2 0.7V1.4H1.33333C0.593333 1.4 0.00666666 2.03 0.00666666 2.8L0 12.6C0 13.37 0.593333 14 1.33333 14H10.6667C11.4 14 12 13.37 12 12.6V2.8C12 2.03 11.4 1.4 10.6667 1.4H10V0.7C10 0.315 9.7 0 9.33333 0C8.96667 0 8.66667 0.315 8.66667 0.7ZM10 12.6H2C1.63333 12.6 1.33333 12.285 1.33333 11.9V4.9H10.6667V11.9C10.6667 12.285 10.3667 12.6 10 12.6Z" fill="black"/>
</svg>
