<svg width="76" height="75" viewBox="0 0 76 75" fill="none" xmlns="http://www.w3.org/2000/svg">
<rect x="2.5415" y="2.49561" width="61.4454" height="61.4454" rx="19" fill="#E1EEFB"/>
<g filter="url(#filter0_d)">
<path d="M18.8051 48.0838C16.1021 45.3227 16.6553 42.3897 16.6553 33.4794C16.6553 26.08 15.3425 18.6622 22.2132 16.9159C24.3587 16.3733 43.3685 16.3733 45.5111 16.9187C48.3718 17.6446 50.6993 19.9264 51.0174 23.9052C51.0619 24.4605 51.0619 42.4884 51.016 43.055C50.6778 47.2931 48.0249 49.7356 44.5294 50.2303C43.7282 50.3445 43.5677 50.3783 39.4573 50.3854C24.8775 50.3783 21.6815 51.0168 18.8051 48.0838Z" fill="url(#paint0_linear)"/>
<path d="M34.0859 45.9028C28.9901 45.9028 24.1511 46.366 22.3027 41.5185C21.5393 39.5163 21.6501 36.9162 21.6501 33.193C21.6501 29.9259 21.5477 26.8554 22.3027 24.869C24.1468 20.0186 29.0251 20.4833 34.0831 20.4833C38.9628 20.4833 43.9941 19.9641 45.8649 24.869C46.6297 26.8912 46.5174 29.4527 46.5174 33.193C46.5174 38.1582 46.7855 41.3636 44.4291 43.7701C42.0433 46.2083 38.8168 45.9028 34.0803 45.9028H34.0859ZM32.9716 43.6124C43.6011 43.6296 44.954 44.8372 44.2074 28.0615C43.9422 22.1283 39.5214 22.7794 34.0873 22.7794C24.1791 22.7794 23.8942 23.0691 23.8942 33.1988C23.8942 43.446 24.6801 43.6066 32.9716 43.6152V43.6124ZM40.7241 41.5027C39.9003 41.5027 39.2323 40.82 39.2323 39.9782C39.2323 39.1363 39.9003 38.4536 40.7241 38.4536C41.5479 38.4536 42.2159 39.1363 42.2159 39.9782C42.2159 40.82 41.5479 41.5027 40.7241 41.5027ZM34.0859 39.72C30.5591 39.72 27.7003 36.7971 27.7003 33.193C27.7003 29.5889 30.5591 26.6675 34.0859 26.6675C37.6127 26.6675 40.4701 29.5889 40.4701 33.193C40.4701 36.7971 37.6127 39.72 34.0859 39.72ZM34.0859 37.4296C39.5663 37.4296 39.5733 28.9564 34.0859 28.9564C28.6069 28.9564 28.5985 37.4296 34.0859 37.4296Z" fill="white"/>
</g>
<defs>
<filter id="filter0_d" x="0.554932" y="0.509277" width="74.4957" height="73.9302" filterUnits="userSpaceOnUse" color-interpolation-filters="sRGB">
<feFlood flood-opacity="0" result="BackgroundImageFix"/>
<feColorMatrix in="SourceAlpha" type="matrix" values="0 0 0 0 0 0 0 0 0 0 0 0 0 0 0 0 0 0 127 0"/>
<feOffset dx="4" dy="4"/>
<feGaussianBlur stdDeviation="10"/>
<feColorMatrix type="matrix" values="0 0 0 0 1 0 0 0 0 0.705882 0 0 0 0 0.305882 0 0 0 0.25 0"/>
<feBlend mode="normal" in2="BackgroundImageFix" result="effect1_dropShadow"/>
<feBlend mode="normal" in="SourceGraphic" in2="effect1_dropShadow" result="shape"/>
</filter>
<linearGradient id="paint0_linear" x1="10.087" y1="8.42437" x2="52.2293" y2="49.2123" gradientUnits="userSpaceOnUse">
<stop stop-color="#FF9C55"/>
<stop offset="0.5" stop-color="#FF543E"/>
<stop offset="1" stop-color="#C837AB"/>
</linearGradient>
</defs>
</svg>
