<svg width="40" height="40" viewBox="0 0 40 40" fill="none" xmlns="http://www.w3.org/2000/svg">
<path d="M31.6668 16.6666C33.5502 16.6666 35.2668 16.0166 36.6668 14.9666V29.9999C36.6668 31.8333 35.1668 33.3332 33.3335 33.3332H6.66683C4.8335 33.3332 3.3335 31.8333 3.3335 29.9999V9.99992C3.3335 8.16658 4.8335 6.66658 6.66683 6.66658H23.5002C23.4002 7.19992 23.3335 7.76658 23.3335 8.33325C23.3335 10.7999 24.4168 12.9833 26.1168 14.5166L20.0002 18.3333L8.8335 11.3499C7.8835 10.7666 6.66683 11.4333 6.66683 12.5499C6.66683 13.0333 6.91683 13.4833 7.3335 13.7499L19.1168 21.1166C19.6502 21.4499 20.3502 21.4499 20.8835 21.1166L28.8335 16.1499C29.7335 16.4666 30.6668 16.6666 31.6668 16.6666ZM26.6668 8.33325C26.6668 11.0999 28.9002 13.3333 31.6668 13.3333C34.4335 13.3333 36.6668 11.0999 36.6668 8.33325C36.6668 5.56659 34.4335 3.33325 31.6668 3.33325C28.9002 3.33325 26.6668 5.56659 26.6668 8.33325Z" fill="white"/>
</svg>
