<svg width="12" height="17" viewBox="0 0 12 17" fill="none" xmlns="http://www.w3.org/2000/svg">
<path opacity="0.2" d="M6 0C2.68286 0 0 2.73292 0 6.11197C0 9.75295 3.78857 14.7735 5.34857 16.6857C5.69143 17.1048 6.31714 17.1048 6.66 16.6857C8.21143 14.7735 12 9.75295 12 6.11197C12 2.73292 9.31714 0 6 0ZM6 8.29481C4.81714 8.29481 3.85714 7.3169 3.85714 6.11197C3.85714 4.90704 4.81714 3.92912 6 3.92912C7.18286 3.92912 8.14286 4.90704 8.14286 6.11197C8.14286 7.3169 7.18286 8.29481 6 8.29481Z" fill="black"/>
</svg>
