<svg width="29" height="28" viewBox="0 0 29 28" fill="none" xmlns="http://www.w3.org/2000/svg">
<path d="M27.3665 0H16.4616C15.6048 0 14.9038 0.701025 14.9038 1.55783V15.5783L19.5773 10.9048H27.3665C28.2233 10.9048 28.9243 10.2038 28.9243 9.347V1.55783C28.9243 0.701025 28.2233 0 27.3665 0ZM26.1669 19.099L22.2101 18.6473C21.2598 18.5382 20.3251 18.8654 19.6552 19.5352L16.7888 22.4017C12.3801 20.1584 8.76594 16.5598 6.52266 12.1355L9.40466 9.25353C10.0745 8.58366 10.4017 7.64897 10.2926 6.69869L9.84085 2.77294C9.65391 1.19953 8.32975 0.0155783 6.74076 0.0155783H4.04571C2.28536 0.0155783 0.820991 1.47994 0.930039 3.24029C1.75569 16.5442 12.3957 27.1686 25.684 27.9943C27.4444 28.1033 28.9087 26.639 28.9087 24.8786V22.1836C28.9243 20.6101 27.7404 19.286 26.1669 19.099Z" fill="white"/>
</svg>
