<svg width="34" height="34" viewBox="0 0 34 34" fill="none" xmlns="http://www.w3.org/2000/svg">
<path d="M17 0.333252C7.80004 0.333252 0.333374 7.79992 0.333374 16.9999C0.333374 26.1999 7.80004 33.6666 17 33.6666C26.2 33.6666 33.6667 26.1999 33.6667 16.9999C33.6667 7.79992 26.2 0.333252 17 0.333252ZM12.4834 24.1499L6.50004 18.1666C5.85004 17.5166 5.85004 16.4666 6.50004 15.8166C7.15004 15.1666 8.20004 15.1666 8.85004 15.8166L13.6667 20.6166L25.1334 9.14992C25.7834 8.49992 26.8334 8.49992 27.4834 9.14992C28.1334 9.79992 28.1334 10.8499 27.4834 11.4999L14.8334 24.1499C14.2 24.7999 13.1334 24.7999 12.4834 24.1499Z" fill="#9F9F9F"/>
</svg>
