<svg width="448" height="439" viewBox="0 0 448 439" fill="none" xmlns="http://www.w3.org/2000/svg">
<path opacity="0.38" d="M224.103 439C347.524 439 447.576 431.746 447.576 422.798C447.576 413.85 347.524 406.597 224.103 406.597C100.682 406.597 0.629883 413.85 0.629883 422.798C0.629883 431.746 100.682 439 224.103 439Z" fill="#F0F6FF"/>
<path d="M108.4 82.1718C108.169 86.2595 107.692 89.9966 107.16 93.8772C106.628 97.7229 105.905 101.539 105.082 105.348C103.488 113.059 101.181 120.606 98.1917 127.89L96.9587 130.638L96.6497 131.323L96.495 131.665C96.4434 131.777 96.4045 131.873 96.2819 132.107C95.8539 132.98 95.3132 133.793 94.6736 134.525C93.9155 135.387 93.0073 136.104 91.9932 136.641C90.9975 137.167 89.9144 137.508 88.7968 137.646C87.0968 137.833 85.3765 137.653 83.7516 137.12C81.4785 136.343 79.3332 135.233 77.3856 133.827C75.6993 132.622 74.0837 131.32 72.5468 129.929C66.8393 124.599 61.7093 118.683 57.2417 112.278L61.9894 108.265C64.6436 110.756 67.4172 113.277 70.178 115.668C72.9295 118.084 75.7767 120.368 78.634 122.408C80.0037 123.405 81.4299 124.323 82.9053 125.156C84.077 125.863 85.3444 126.399 86.6686 126.745C87.1162 126.836 87.4057 126.768 87.198 126.741C86.8078 126.78 86.4415 126.947 86.1566 127.216C86.0568 127.311 86.0407 127.325 86.0534 127.26L86.483 126.135L87.4211 123.675C89.7509 116.885 91.5776 109.932 92.8864 102.873C93.5961 99.3157 94.0967 95.7072 94.6348 92.1101C95.1487 88.5432 95.5602 84.81 95.8738 81.3932L108.4 82.1718Z" fill="#FFC3BD"/>
<path d="M99.8567 67.2125C94.7975 68.5004 91.2573 89.3198 91.2573 89.3198L105.2 98.8004C105.2 98.8004 118.567 77.7974 114.675 72.2349C110.622 66.4432 107.239 65.3328 99.8567 67.2125Z" fill="#18C2F3"/>
<path d="M100.313 71.8623L96.4263 92.8472L104.262 98.1605L100.313 71.8623Z" fill="#004DAA"/>
<path d="M62.1274 107.482L55.4933 97.0079L51.7334 108.911C51.7334 108.911 57.1719 114.616 62.0912 113.255L62.1274 107.482Z" fill="#FFC3BD"/>
<path d="M45.777 93.5428L43.1636 103.679L51.7335 108.911L55.4941 97.0079L45.777 93.5428Z" fill="#FFC3BD"/>
<path d="M127.228 417.636H114.953L114.131 389.209H126.406L127.228 417.636Z" fill="#FFC3BD"/>
<path d="M235.549 360.617L226.193 368.564L204.782 349.454L214.138 341.506L235.549 360.617Z" fill="#FFC3BD"/>
<path d="M223.629 367.611L232.702 357.224C232.855 357.043 233.069 356.924 233.304 356.889C233.538 356.855 233.777 356.908 233.976 357.038L243.227 363.033C243.454 363.192 243.645 363.397 243.788 363.635C243.93 363.873 244.021 364.138 244.054 364.413C244.087 364.689 244.061 364.968 243.979 365.233C243.897 365.497 243.759 365.742 243.576 365.95C240.35 369.517 238.613 371.076 234.622 375.644C232.168 378.454 228.873 382.814 225.483 386.694C222.168 390.489 218.076 387.431 219.141 385.509C223.911 376.903 222.759 373.881 222.845 369.65C222.86 368.899 223.137 368.178 223.629 367.611Z" fill="#14365B"/>
<path d="M114.534 416.215H128.326C128.563 416.211 128.794 416.294 128.975 416.448C129.156 416.603 129.274 416.818 129.306 417.053L130.877 427.965C130.906 428.241 130.878 428.519 130.792 428.783C130.706 429.047 130.566 429.29 130.38 429.496C130.194 429.702 129.967 429.866 129.714 429.978C129.46 430.09 129.185 430.148 128.908 430.147C124.101 430.063 121.784 429.782 115.719 429.782C111.987 429.782 104.27 430.17 99.1173 430.17C94.0781 430.17 93.6895 425.077 95.8338 424.614C105.453 422.546 109.236 419.692 112.48 416.97C113.055 416.485 113.782 416.218 114.534 416.215Z" fill="#14365B"/>
<path d="M114.137 389.217L114.557 403.87H126.838L126.418 389.217H114.137Z" fill="#F29994"/>
<path d="M214.146 341.51L204.787 349.46L215.828 359.306L225.188 351.356L214.146 341.51Z" fill="#F29994"/>
<path d="M108.66 11.7963C116.948 -0.521479 136.805 -4.61514 149.171 6.43083C164.909 20.4896 155.361 48.067 179.564 40.7226C203.767 33.3783 226.423 35.1668 226.543 47.6863C226.663 60.2059 241.453 44.3184 258.854 57.1623C294.076 83.1622 267.14 150.027 236.159 124.481C215.855 107.737 208.737 100.559 198.601 113.314C188.465 126.07 152.401 120.06 149.171 103.964C145.941 87.867 122.928 95.7367 110.409 81.6672C97.8892 67.5978 90.9985 38.0476 108.66 11.7963Z" fill="#F9A000"/>
<path d="M99.8562 67.2132C99.8562 67.2132 94.0082 69.2724 105.722 141.3H155.578C154.741 121.01 154.718 108.497 164.416 66.8567C157.436 65.4154 150.36 64.4829 143.245 64.0664C134.856 63.6643 127.982 63.3963 120.607 64.0664C110.883 64.9549 99.8562 67.2132 99.8562 67.2132Z" fill="#56F68F"/>
<path d="M141.002 38.577C139.574 45.861 138.147 59.2061 143.244 64.0664C143.244 64.0664 141.254 71.4563 127.719 71.4563C112.837 71.4563 120.606 64.0677 120.606 64.0677C128.728 62.1244 128.52 56.1009 127.106 50.4425L141.002 38.577Z" fill="#FFC3BD"/>
<path d="M135.336 43.4191L127.11 50.4324C127.46 51.7495 127.694 53.0949 127.809 54.453C130.912 54.004 135.174 50.5985 135.503 47.3499C135.686 46.0403 135.629 44.7084 135.336 43.4191Z" fill="#F29994"/>
<path d="M148.684 25.2164C145.828 37.0591 144.873 42.1325 137.735 47.2078C127.002 54.841 113.08 48.743 112.338 36.2852C111.672 25.0717 116.455 7.58735 129.019 4.8989C141.4 2.24932 151.543 13.3737 148.684 25.2164Z" fill="#FFC3BD"/>
<path d="M105.723 141.3C105.723 141.3 96.0407 235.858 96.8448 273.292C97.6818 312.229 111.95 401.031 111.95 401.031H128.548C128.548 401.031 125.921 314.504 127.387 276.264C128.987 234.576 142.229 141.3 142.229 141.3H105.723Z" fill="#3ACEF9"/>
<path d="M129.986 401.627H110.507L109.079 395.414L130.888 394.655L129.986 401.627Z" fill="#4EA4F9"/>
<path d="M127.228 164.826C114.983 189.459 124.77 234.396 129.099 251.113C131.32 226.005 135.063 195.312 137.982 172.773C136.126 160.02 132.873 153.47 127.228 164.826Z" fill="#56F68F"/>
<path d="M118.889 141.3C118.889 141.3 130.182 239.604 138.71 271.165C148.836 308.636 211.731 359.062 211.731 359.062L224.489 348.225C224.489 348.225 178.903 293.447 171.162 273.71C154.639 231.578 168.782 168.794 155.577 141.298L118.889 141.3Z" fill="#55D9FF"/>
<path d="M226.523 347.644L210.696 361.088L204.784 357.545L222.689 340.89L226.523 347.644Z" fill="#4EA4F9"/>
<path d="M129.93 25.3466C130.103 24.3718 129.726 23.49 129.089 23.3771C128.452 23.2642 127.795 23.9629 127.622 24.9377C127.45 25.9125 127.826 26.7943 128.464 26.9072C129.101 27.0201 129.758 26.3214 129.93 25.3466Z" fill="#0F264C"/>
<path d="M118.911 23.3951C118.738 24.3695 118.081 25.0704 117.444 24.9545C116.806 24.8385 116.429 23.96 116.602 22.9857C116.775 22.0114 117.43 21.3105 118.069 21.4244C118.707 21.5383 119.082 22.4195 118.911 23.3951Z" fill="#0F264C"/>
<path d="M118.34 21.5285L116.119 20.4387C116.119 20.4387 116.996 22.4797 118.34 21.5285Z" fill="#0F264C"/>
<path d="M121.524 25.5851C121.524 25.5851 119.126 29.4898 116.945 31.1912C118.017 32.6205 120.307 32.4603 120.307 32.4603L121.524 25.5851Z" fill="#ED847E"/>
<path d="M124.718 37.0565C124.162 37.0553 123.607 37.0056 123.059 36.9078C122.986 36.8918 122.921 36.8479 122.879 36.7853C122.837 36.7226 122.821 36.6462 122.834 36.5719C122.847 36.4976 122.889 36.4314 122.95 36.387C123.011 36.3427 123.087 36.3238 123.161 36.3342C124.369 36.5745 125.617 36.5274 126.803 36.1968C127.99 35.8663 129.082 35.2614 129.992 34.4311C130.044 34.3747 130.117 34.3417 130.195 34.3391C130.272 34.3366 130.347 34.3649 130.403 34.4177C130.459 34.4704 130.492 34.5434 130.495 34.6206C130.497 34.6978 130.469 34.7728 130.416 34.8291C128.88 36.2856 126.835 37.0848 124.718 37.0565Z" fill="#0F264C"/>
<path d="M129.515 3.89174C124.031 7.04122 137.548 36.7998 147.445 32.6264C157.341 28.453 154.121 11.8412 149.233 7.65771C144.345 3.47426 137.102 -0.460575 129.515 3.89174Z" fill="#F9A000"/>
<path d="M126.428 2.49663C126.428 2.49663 119.836 3.45086 115.425 11.677C111.014 19.9032 136.35 3.6291 132.773 2.49663C130.714 1.81086 128.487 1.81086 126.428 2.49663Z" fill="#F9A000"/>
<path d="M149.189 34.1442C148.278 36.3179 146.544 38.0423 144.364 38.9401C141.467 40.1048 139.678 37.5999 140.196 34.685C140.666 32.0635 142.733 28.2976 145.778 28.3739C148.782 28.4483 150.278 31.4698 149.189 34.1442Z" fill="#FFC3BD"/>
<path d="M132.947 18.935C132.868 18.9348 132.79 18.9185 132.718 18.8873C132.645 18.8561 132.58 18.8106 132.525 18.7534C132.038 18.2095 131.429 17.7887 130.748 17.5256C130.067 17.2625 129.334 17.1645 128.608 17.2396C128.456 17.2674 128.299 17.2337 128.172 17.1459C128.045 17.0582 127.959 16.9237 127.931 16.7719C127.903 16.6201 127.937 16.4636 128.025 16.3366C128.112 16.2097 128.247 16.1228 128.399 16.0951C129.315 15.9849 130.245 16.0962 131.11 16.4196C131.975 16.7431 132.75 17.2692 133.369 17.954C133.448 18.0365 133.5 18.1401 133.52 18.2521C133.54 18.364 133.526 18.4793 133.482 18.5838C133.437 18.6883 133.362 18.7772 133.267 18.8398C133.172 18.9023 133.061 18.9356 132.947 18.9357V18.935Z" fill="#0F264C"/>
<path d="M114.904 17.438C114.754 17.439 114.61 17.3815 114.502 17.2779C114.39 17.1712 114.325 17.0246 114.322 16.8703C114.318 16.716 114.376 16.5666 114.483 16.455C115.105 15.7721 115.881 15.2485 116.747 14.9283C117.614 14.6081 118.544 14.5006 119.46 14.6149C119.609 14.6466 119.739 14.735 119.823 14.8611C119.907 14.9872 119.938 15.1412 119.91 15.2902C119.883 15.4392 119.798 15.5715 119.674 15.6589C119.55 15.7463 119.397 15.7819 119.247 15.7581C118.521 15.6781 117.786 15.7726 117.103 16.0337C116.421 16.2947 115.81 16.7148 115.322 17.2591C115.268 17.3155 115.203 17.3604 115.131 17.3912C115.059 17.4219 114.982 17.4378 114.904 17.438Z" fill="#0F264C"/>
<path d="M169.804 79.9773C172.494 86.5346 174.819 93.2358 176.768 100.05C178.826 106.935 180.344 113.97 181.306 121.091C181.49 122.936 181.708 124.756 181.761 126.666L181.828 128.081C181.89 129.028 181.815 129.979 181.605 130.904C181.416 131.695 181.102 132.451 180.676 133.144C180.189 133.933 179.554 134.621 178.807 135.172C177.668 135.998 176.326 136.503 174.924 136.632C174.078 136.715 173.224 136.693 172.383 136.565C171.744 136.475 171.111 136.344 170.489 136.173C169.449 135.884 168.43 135.53 167.435 135.112C165.678 134.37 163.968 133.52 162.317 132.566C156.172 128.959 150.371 124.795 144.989 120.126L148.506 115.002C154.537 118.048 160.664 121.221 166.658 123.671C168.147 124.277 169.639 124.81 171.014 125.226C171.632 125.415 172.262 125.561 172.9 125.666C173.114 125.699 173.33 125.715 173.546 125.712C173.698 125.712 173.774 125.672 173.581 125.666C173.038 125.715 172.522 125.921 172.094 126.259C171.383 126.785 170.867 127.532 170.627 128.383C170.489 128.861 170.552 129.259 170.483 128.639L170.357 127.478C170.232 125.947 169.941 124.36 169.693 122.787C169.114 119.623 168.429 116.428 167.559 113.234C166.749 110.036 165.806 106.834 164.818 103.645C162.782 97.3061 160.544 90.8457 158.184 84.7236L169.804 79.9773Z" fill="#FFC3BD"/>
<path d="M164.415 66.8567C169.409 68.3744 175.405 85.5746 175.405 85.5746L156.027 99.429C156.027 99.429 148.961 85.0721 151.058 78.6149C153.248 71.8918 158.715 65.1238 164.415 66.8567Z" fill="#55D9FF"/>
<path d="M220.276 373.536C220.024 373.529 219.776 373.465 219.552 373.35C219.327 373.235 219.131 373.072 218.978 372.872C218.856 372.745 218.77 372.588 218.729 372.417C218.688 372.246 218.693 372.067 218.743 371.899C219.198 370.398 223.462 369.173 223.946 369.04C224.001 369.023 224.059 369.023 224.113 369.041C224.168 369.058 224.216 369.091 224.251 369.136C224.287 369.18 224.308 369.234 224.314 369.291C224.319 369.347 224.308 369.404 224.281 369.455C223.519 370.9 222.009 373.349 220.461 373.526C220.4 373.533 220.338 373.536 220.276 373.536ZM223.425 369.801C221.734 370.337 219.539 371.275 219.299 372.067C219.277 372.142 219.276 372.222 219.297 372.297C219.318 372.372 219.36 372.44 219.417 372.492C219.525 372.648 219.672 372.772 219.843 372.851C220.014 372.931 220.204 372.964 220.392 372.947C221.229 372.853 222.342 371.69 223.427 369.801H223.425Z" fill="#9FC6FF"/>
<path d="M222.077 369.851C220.661 369.851 219.071 369.567 218.525 368.858C218.384 368.674 218.311 368.448 218.317 368.216C218.323 367.984 218.408 367.762 218.558 367.585C218.681 367.399 218.843 367.242 219.034 367.126C219.224 367.01 219.438 366.938 219.66 366.915C221.427 366.676 224.1 369 224.212 369.098C224.251 369.131 224.28 369.174 224.296 369.222C224.313 369.27 224.316 369.322 224.307 369.371C224.297 369.421 224.275 369.468 224.242 369.506C224.208 369.544 224.166 369.573 224.118 369.59C223.455 369.781 222.766 369.869 222.077 369.851ZM219.922 367.482C219.859 367.482 219.797 367.486 219.735 367.493C219.595 367.507 219.46 367.552 219.339 367.625C219.219 367.698 219.117 367.797 219.04 367.915C218.829 368.223 218.901 368.392 218.987 368.505C219.512 369.186 221.925 369.451 223.393 369.179C222.518 368.496 220.979 367.482 219.922 367.482Z" fill="#9FC6FF"/>
<path d="M109.925 418.36C108.704 418.36 107.58 418.171 106.948 417.605C106.752 417.43 106.601 417.209 106.509 416.962C106.418 416.715 106.388 416.449 106.423 416.188C106.432 416.028 106.482 415.873 106.569 415.738C106.655 415.602 106.775 415.492 106.917 415.416C108.423 414.592 113.312 417.091 113.864 417.379C113.918 417.407 113.961 417.451 113.989 417.504C114.017 417.558 114.027 417.619 114.018 417.678C114.01 417.738 113.983 417.793 113.942 417.837C113.9 417.881 113.846 417.911 113.787 417.923C112.516 418.188 111.223 418.334 109.925 418.36ZM107.736 415.821C107.55 415.811 107.363 415.847 107.194 415.925C107.137 415.956 107.089 416.001 107.055 416.057C107.021 416.113 107.003 416.176 107.002 416.241C106.977 416.412 106.994 416.586 107.052 416.749C107.111 416.911 107.209 417.056 107.337 417.171C108.083 417.842 110.102 417.957 112.822 417.507C111.137 416.699 108.899 415.821 107.736 415.821Z" fill="#9FC6FF"/>
<path d="M113.728 417.928C113.687 417.928 113.646 417.919 113.609 417.903C112.145 417.24 109.253 414.592 109.479 413.202C109.532 412.872 109.766 412.465 110.571 412.383C110.859 412.351 111.151 412.379 111.427 412.465C111.704 412.551 111.96 412.694 112.179 412.883C113.72 414.168 114.007 417.474 114.017 417.614C114.021 417.664 114.012 417.715 113.991 417.761C113.969 417.807 113.936 417.847 113.895 417.876C113.846 417.909 113.788 417.928 113.728 417.928ZM110.804 412.952C110.747 412.952 110.688 412.952 110.63 412.961C110.099 413.013 110.065 413.229 110.054 413.296C109.916 414.13 111.881 416.213 113.372 417.115C113.231 416.152 112.821 414.171 111.808 413.328C111.531 413.085 111.175 412.952 110.806 412.952H110.804Z" fill="#9FC6FF"/>
<path d="M156.324 138.377L157.597 142.84C157.77 143.187 157.361 143.54 156.784 143.54H105.475C105.026 143.54 104.653 143.319 104.625 143.036L104.174 138.573C104.144 138.264 104.533 138.003 105.025 138.003H155.509C155.666 137.99 155.823 138.017 155.966 138.082C156.109 138.148 156.232 138.25 156.324 138.377Z" fill="#9FC6FF"/>
<path d="M149.543 144.02H150.896C151.164 144.02 151.369 143.881 151.351 143.711L150.717 137.913C150.698 137.743 150.463 137.604 150.193 137.604H148.84C148.572 137.604 148.367 137.743 148.385 137.913L149.019 143.711C149.039 143.881 149.275 144.02 149.543 144.02Z" fill="#19437F"/>
<path d="M109.276 144.02H110.628C110.896 144.02 111.102 143.881 111.083 143.711L110.449 137.913C110.431 137.743 110.195 137.604 109.925 137.604H108.574C108.306 137.604 108.1 137.743 108.119 137.913L108.753 143.711C108.772 143.881 109.006 144.02 109.276 144.02Z" fill="#19437F"/>
<path d="M129.41 144.02H130.763C131.031 144.02 131.238 143.881 131.219 143.711L130.585 137.913C130.566 137.743 130.33 137.604 130.062 137.604H128.709C128.441 137.604 128.234 137.743 128.253 137.913L128.887 143.711C128.905 143.881 129.142 144.02 129.41 144.02Z" fill="#19437F"/>
<path d="M150.137 116.305L146.016 103.7L139.444 114.311C139.444 114.311 143.313 121.177 148.415 121.07L150.137 116.305Z" fill="#FFC3BD"/>
<path d="M141.636 89.2426L138.41 131.073C138.323 132.164 137.807 133.177 136.976 133.889C136.145 134.601 135.065 134.956 133.974 134.875L54.3393 128.728C53.248 128.641 52.2355 128.125 51.5232 127.294C50.8108 126.462 50.4566 125.383 50.5378 124.291L53.7657 82.4599C53.8516 81.3681 54.3668 80.3549 55.1985 79.6423C56.0301 78.9297 57.1104 78.5759 58.2024 78.6584L137.838 84.8052C138.93 84.8906 139.943 85.4058 140.656 86.2376C141.368 87.0694 141.722 88.1499 141.638 89.242L141.636 89.2426Z" fill="#DCE9FF"/>
<path d="M140.554 86.1261L106.446 109.457C103.283 111.62 99.477 112.638 95.6569 112.343C91.8369 112.049 88.232 110.459 85.4387 107.836L55.3115 79.5477C56.1279 78.8977 57.1598 78.5803 58.2003 78.6592L137.836 84.806C138.876 84.8871 139.847 85.3587 140.554 86.1261Z" fill="#55D9FF"/>
<path d="M137.447 97.9508L132.424 107.131L140.554 115.977L146.017 103.698L137.447 97.9508Z" fill="#FFC3BD"/>
<path d="M129.36 23.4804L127.139 22.3906C127.139 22.3906 128.014 24.4316 129.36 23.4804Z" fill="#0F264C"/>
<path d="M340.812 192.316H358.359V430.169H340.812V192.316Z" fill="#983AE9"/>
<path d="M340.812 192.316H358.359V209.862L340.812 203.405V192.316Z" fill="#56F68F"/>
<path d="M321.874 135.25C321.896 129.724 320.827 124.248 318.728 119.137C316.628 114.025 313.54 109.379 309.641 105.464C305.742 101.549 301.107 98.4422 296.004 96.3225C290.901 94.2027 285.43 93.1116 279.904 93.1116C274.378 93.1116 268.907 94.2027 263.804 96.3225C258.701 98.4422 254.067 101.549 250.167 105.464C246.268 109.379 243.18 114.025 241.08 119.137C238.981 124.248 237.912 129.724 237.934 135.25V192.316H321.874V135.25Z" fill="#18C2F3"/>
<path d="M229.987 216.799C224.378 239.977 238.623 258.768 261.802 258.768C284.981 258.768 308.32 239.979 313.927 216.799L319.768 192.664C319.846 192.339 319.85 192 319.779 191.673C319.708 191.346 319.563 191.039 319.356 190.776C319.149 190.513 318.885 190.301 318.584 190.155C318.282 190.009 317.952 189.933 317.617 189.933H238.228C237.732 189.933 237.25 190.1 236.86 190.407C236.47 190.714 236.194 191.143 236.078 191.626L229.987 216.799Z" fill="#55D9FF"/>
<path d="M226.608 216.799C221 239.977 235.245 258.768 258.423 258.768C281.602 258.768 304.94 239.979 310.549 216.799L316.389 192.664C316.468 192.339 316.472 192 316.4 191.673C316.329 191.346 316.184 191.039 315.977 190.776C315.77 190.513 315.506 190.301 315.205 190.155C314.904 190.009 314.574 189.933 314.239 189.933H234.85C234.353 189.933 233.871 190.1 233.481 190.407C233.091 190.714 232.816 191.143 232.7 191.626L226.608 216.799Z" fill="#56F68F"/>
<path d="M420.669 135.242V192.32H321.872V135.242C321.867 124.114 317.444 113.443 309.575 105.574C301.706 97.7056 291.035 93.2825 279.907 93.2772H378.704C389.832 93.2825 400.503 97.7056 408.372 105.574C416.241 113.443 420.664 124.114 420.669 135.242Z" fill="#55D9FF"/>
<path d="M420.67 135.242V150.509H321.873V135.242C321.892 125.909 318.777 116.84 313.028 109.488H411.827C417.575 116.841 420.689 125.91 420.67 135.242Z" fill="#56F68F"/>
<path d="M335.626 157.858V73.4724C335.626 72.7199 335.79 71.9764 336.106 71.2935C336.422 70.6106 336.883 70.0047 337.457 69.5179C338.031 69.0311 338.704 68.675 339.429 68.4744C340.155 68.2738 340.915 68.2334 341.657 68.3562L361.883 71.7C362.609 71.8197 363.268 72.1932 363.744 72.7539C364.22 73.3147 364.482 74.0262 364.482 74.7617V79.9938C364.482 80.8172 364.155 81.6069 363.572 82.1891C362.99 82.7713 362.201 83.0984 361.377 83.0984H342.065V157.858C342.065 158.28 341.982 158.698 341.82 159.089C341.658 159.479 341.421 159.833 341.123 160.132C340.824 160.431 340.469 160.668 340.079 160.829C339.689 160.991 339.271 161.074 338.848 161.074C338.425 161.075 338.007 160.992 337.616 160.831C337.225 160.67 336.87 160.433 336.57 160.134C336.271 159.835 336.034 159.48 335.872 159.09C335.71 158.699 335.626 158.281 335.626 157.858Z" fill="#983AE9"/>
<path d="M279.907 104.422V146.378C279.904 147.473 279.468 148.522 278.694 149.296C277.919 150.07 276.87 150.506 275.776 150.509H195.905C194.81 150.506 193.761 150.07 192.987 149.296C192.213 148.522 191.776 147.473 191.773 146.378V104.422C191.775 103.327 192.211 102.277 192.985 101.502C193.76 100.728 194.81 100.292 195.905 100.29H275.775C276.87 100.292 277.92 100.728 278.695 101.502C279.469 102.277 279.905 103.327 279.907 104.422H279.907Z" fill="#DCE9FF"/>
<path d="M278.588 101.399L246.373 127.285C243.386 129.685 239.67 130.993 235.838 130.993C232.006 130.993 228.29 129.685 225.303 127.285L193.09 101.399C193.854 100.687 194.86 100.291 195.904 100.29H275.775C276.819 100.292 277.824 100.688 278.588 101.399Z" fill="#9FC6FF"/>
<path d="M218.699 167.426V209.383C218.696 210.477 218.26 211.526 217.486 212.3C216.712 213.074 215.663 213.51 214.569 213.513H134.697C133.602 213.51 132.553 213.074 131.779 212.3C131.005 211.526 130.568 210.477 130.565 209.383V167.426C130.567 166.33 131.003 165.281 131.778 164.507C132.552 163.733 133.602 163.297 134.697 163.295H214.568C215.663 163.297 216.712 163.733 217.487 164.507C218.261 165.281 218.697 166.331 218.699 167.426H218.699Z" fill="#DCE9FF"/>
<path d="M217.383 164.404L185.167 190.289C182.181 192.689 178.464 193.997 174.632 193.997C170.801 193.997 167.084 192.689 164.097 190.289L131.884 164.404C132.648 163.692 133.654 163.296 134.699 163.295H214.569C215.614 163.295 216.619 163.692 217.383 164.404Z" fill="#9FC6FF"/>
<path d="M321.877 135.967V186.188H292.03C290.934 186.185 289.884 185.749 289.109 184.974C288.334 184.199 287.898 183.149 287.895 182.053V140.105C287.904 139.011 288.343 137.964 289.116 137.191C289.89 136.417 290.936 135.979 292.03 135.969L321.877 135.967Z" fill="#DCE9FF"/>
<path d="M321.876 135.967V163.296C321.722 163.194 321.574 163.084 321.432 162.967L289.225 137.083C289.983 136.367 290.987 135.968 292.029 135.968L321.876 135.967Z" fill="#9FC6FF"/>
<g style="mix-blend-mode:multiply">
<path d="M321.877 135.966H315.333V186.188H321.877V135.966Z" fill="#B6D7FF"/>
</g>
</svg>
