<svg width="78" height="69" viewBox="0 0 78 69" fill="none" xmlns="http://www.w3.org/2000/svg">
<rect x="4.02759" y="0.495605" width="61.4454" height="61.4454" rx="19" fill="#E1EEFB"/>
<g filter="url(#filter0_d)">
<path d="M53.6145 19.9836C52.2515 20.5463 50.7992 20.9193 49.2851 21.1004C50.8428 20.225 52.0316 18.8495 52.5906 17.1916C51.1383 18.0065 49.5347 18.5822 47.8259 18.9034C46.4468 17.5215 44.4814 16.6655 42.3373 16.6655C38.1773 16.6655 34.8283 19.8434 34.8283 23.7393C34.8283 24.2998 34.8787 24.8388 35.0024 25.352C28.7556 25.0652 23.228 22.2474 19.5148 17.9548C18.8665 19.0134 18.4862 20.225 18.4862 21.5294C18.4862 23.9786 19.8263 26.1497 21.8238 27.4066C20.6166 27.3851 19.4323 27.0552 18.429 26.5356C18.429 26.5572 18.429 26.5852 18.429 26.6132C18.429 30.0498 21.0335 32.9044 24.449 33.5619C23.8374 33.7193 23.1708 33.7948 22.479 33.7948C21.9979 33.7948 21.5123 33.7689 21.0564 33.674C22.03 36.4747 24.7926 38.5336 28.0775 38.6005C25.521 40.4826 22.2751 41.6167 18.7611 41.6167C18.1449 41.6167 17.5539 41.5908 16.9629 41.5197C20.2913 43.5398 24.236 44.6933 28.4898 44.6933C42.3167 44.6933 49.8761 33.9134 49.8761 24.5693C49.8761 24.2567 49.8646 23.9549 49.8486 23.6552C51.3398 22.6591 52.5929 21.4151 53.6145 19.9836Z" fill="#10D4FF"/>
</g>
<defs>
<filter id="filter0_d" x="0.962891" y="0.665527" width="76.6516" height="68.0277" filterUnits="userSpaceOnUse" color-interpolation-filters="sRGB">
<feFlood flood-opacity="0" result="BackgroundImageFix"/>
<feColorMatrix in="SourceAlpha" type="matrix" values="0 0 0 0 0 0 0 0 0 0 0 0 0 0 0 0 0 0 127 0"/>
<feOffset dx="4" dy="4"/>
<feGaussianBlur stdDeviation="10"/>
<feColorMatrix type="matrix" values="0 0 0 0 0.0627451 0 0 0 0 0.831373 0 0 0 0 1 0 0 0 0.25 0"/>
<feBlend mode="normal" in2="BackgroundImageFix" result="effect1_dropShadow"/>
<feBlend mode="normal" in="SourceGraphic" in2="effect1_dropShadow" result="shape"/>
</filter>
</defs>
</svg>
