<svg width="62" height="65" viewBox="0 0 62 65" fill="none" xmlns="http://www.w3.org/2000/svg">
<rect x="0.0541992" y="0.495605" width="61.4454" height="61.4454" rx="19" fill="#E1EEFB"/>
<g clip-path="url(#clip0)" filter="url(#filter0_d)">
<path d="M44.1443 16.3438H19.5657C14.7435 16.3438 10.8342 20.253 10.8342 25.0752V37.3619C10.8342 42.1842 14.7435 46.0934 19.5657 46.0934H44.1443C48.9666 46.0934 52.8758 42.1842 52.8758 37.3619V25.0752C52.8758 20.253 48.9666 16.3438 44.1443 16.3438ZM38.2393 31.8164L26.7431 37.2994C26.4367 37.4455 26.0829 37.2221 26.0829 36.8828V25.5741C26.0829 25.2299 26.446 25.0069 26.753 25.1624L38.2492 30.9881C38.591 31.1613 38.5851 31.6515 38.2393 31.8164Z" fill="#F61C0D"/>
</g>
<defs>
<filter id="filter0_d" x="6.83423" y="10.1978" width="50.0416" height="60.0416" filterUnits="userSpaceOnUse" color-interpolation-filters="sRGB">
<feFlood flood-opacity="0" result="BackgroundImageFix"/>
<feColorMatrix in="SourceAlpha" type="matrix" values="0 0 0 0 0 0 0 0 0 0 0 0 0 0 0 0 0 0 127 0"/>
<feOffset dy="14"/>
<feGaussianBlur stdDeviation="2"/>
<feColorMatrix type="matrix" values="0 0 0 0 0.964706 0 0 0 0 0.109804 0 0 0 0 0.0509804 0 0 0 0.1 0"/>
<feBlend mode="normal" in2="BackgroundImageFix" result="effect1_dropShadow"/>
<feBlend mode="normal" in="SourceGraphic" in2="effect1_dropShadow" result="shape"/>
</filter>
<clipPath id="clip0">
<rect width="42.0416" height="42.0416" fill="white" transform="translate(10.8342 10.1978)"/>
</clipPath>
</defs>
</svg>
