<svg id="OBJECTS" xmlns="http://www.w3.org/2000/svg" viewBox="0 0 67.13 186.18"><defs><style>.cls-1{fill:#172133;}.cls-2{fill:#223047;}</style></defs><title>crane-оне</title><rect class="cls-1" x="29.39" width="8.91" height="118.24"/><polygon class="cls-2" points="50.33 142.29 16.65 142.29 19.86 105.42 47.12 105.42 50.33 142.29"/><path class="cls-1" d="M189.81,137.48h37.56a2.41,2.41,0,0,1,2.4,2.4h0a2.41,2.41,0,0,1-2.4,2.41H189.81a2.41,2.41,0,0,1-2.4-2.41h0A2.41,2.41,0,0,1,189.81,137.48Z" transform="translate(-174.75)"/><path class="cls-2" d="M191.4,142.29l-16.65,20.57,10.31,23.32s10.35-.07-2.53-24.12l16.41-19.77Z" transform="translate(-174.75)"/><path class="cls-2" d="M225.22,142.29l16.65,20.57-10.31,23.32s-10.36-.07,2.52-24.12l-16.41-19.77Z" transform="translate(-174.75)"/></svg>