<svg id="OBJECTS" xmlns="http://www.w3.org/2000/svg" viewBox="0 0 209.27 170.75"><defs><style>.cls-1{fill:none;stroke:#172133;stroke-linecap:round;stroke-linejoin:round;stroke-width:3px;}.cls-2{fill:#223047;}.cls-3{fill:#260b42;}.cls-4{fill:#3fc9ee;}.cls-5,.cls-6{fill:#fff;}.cls-6{font-size:12px;font-family:Montserrat-Bold, Montserrat Bold;font-weight:700;}.cls-7{letter-spacing:0em;}.cls-8{fill:#fea501;}</style></defs><title>crane-two</title><polyline class="cls-1" points="47.84 115.32 131.93 2.71 47.84 66.51 47.84 115.32"/><polyline class="cls-1" points="47.84 66.51 77.17 76.04 77.17 44.26 100.9 44.26 100.9 26.25 114.35 26.25"/><rect class="cls-2" x="2.04" y="48.34" width="3.99" height="122.41"/><polygon class="cls-2" points="48.92 93.12 46.1 95.97 2.7 52.22 5.52 49.38 48.92 93.12"/><rect class="cls-2" x="45.84" y="48.34" width="3.99" height="122.41"/><polygon class="cls-2" points="2.7 93.12 5.52 95.97 48.92 52.22 46.1 49.38 2.7 93.12"/><rect class="cls-2" x="97.97" y="309.55" width="4.02" height="43.8" transform="translate(-305.51 197.2) rotate(-90)"/><polygon class="cls-2" points="48.92 142.05 46.1 144.9 2.7 101.15 5.52 98.31 48.92 142.05"/><polygon class="cls-2" points="2.7 142.05 5.52 144.9 48.92 101.15 46.1 98.31 2.7 142.05"/><rect class="cls-2" x="97.97" y="358.01" width="4.02" height="43.8" transform="translate(-353.97 245.66) rotate(-90)"/><rect class="cls-2" x="97.84" y="258.54" width="4.02" height="51.62" transform="translate(310.16 -49.72) rotate(90)"/><rect class="cls-3" x="0.26" y="42.4" width="51.36" height="1.39"/><rect class="cls-3" x="47.14" y="42.4" width="1.38" height="5.79"/><rect class="cls-3" x="3.35" y="42.4" width="1.38" height="5.79"/><rect class="cls-3" x="17.95" y="42.4" width="1.38" height="5.79"/><rect class="cls-3" x="32.55" y="42.4" width="1.38" height="5.79"/><line class="cls-1" x1="131.93" y1="2.72" x2="131.93" y2="66.63"/><rect class="cls-4" x="99.64" y="66.56" width="109.63" height="18.97" rx="7.13"/><rect class="cls-5" x="154.49" y="73.65" width="44.6" height="4.13"/><text class="cls-6" transform="translate(109.82 79.37)"><tspan class="cls-7">h</tspan><tspan x="6.61" y="0">ttp://</tspan></text><path class="cls-8" d="M209.52,237.78a3.55,3.55,0,1,0-3.55,3.55A3.56,3.56,0,0,0,209.52,237.78Z" transform="translate(-74.04 -234.22)"/></svg>