<svg id="OBJECTS" xmlns="http://www.w3.org/2000/svg" viewBox="0 0 38.88 38.88"><defs><style>.cls-1{fill:#fea501;}.cls-2{fill:#fff;}</style></defs><title>crane-one-icon</title><rect class="cls-1" width="38.88" height="38.88" rx="7.61"/><path class="cls-2" d="M222.54,189.09v-5.83l-3.53-.6a11.5,11.5,0,0,0-.67-1.62l2.07-2.92L216.29,174l-2.92,2.07a11.15,11.15,0,0,0-1.63-.67l-.59-3.53h-5.83l-.6,3.53a11.5,11.5,0,0,0-1.62.67L200.18,174l-4.12,4.12,2.07,2.92a11.5,11.5,0,0,0-.67,1.62l-3.53.6v5.83l3.53.6a11.5,11.5,0,0,0,.67,1.62l-2.07,2.92,4.12,4.12,2.92-2.07a11.5,11.5,0,0,0,1.62.67l.6,3.53h5.83l.59-3.53a11.15,11.15,0,0,0,1.63-.67l2.92,2.07,4.12-4.12-2.07-2.92a11.5,11.5,0,0,0,.67-1.62Zm-14.31,5.68a8.6,8.6,0,1,1,8.6-8.59A8.6,8.6,0,0,1,208.23,194.77Z" transform="translate(-188.8 -166.74)"/></svg>