<svg xmlns="http://www.w3.org/2000/svg" xmlns:xlink="http://www.w3.org/1999/xlink" width="18" height="18" viewBox="0 0 18 18"><defs><style>.a{fill:#212b36;}.b{clip-path:url(#a);}.c{fill:#f5f6f6;}</style><clipPath id="a"><path class="a" d="M12.57,15.271V9.759c0-1.385-.5-2.329-1.737-2.329a1.877,1.877,0,0,0-1.76,1.252,2.356,2.356,0,0,0-.112.835v5.755H5.53s.045-9.337,0-10.3H8.96v1.46a3.406,3.406,0,0,1,3.091-1.7C14.308,4.725,16,6.2,16,9.364v5.908ZM.2,15.271V4.967h3.43v10.3ZM1.9,3.56A1.785,1.785,0,1,1,1.94,0a1.786,1.786,0,1,1-.022,3.56Z"/></clipPath></defs><g transform="translate(1 1)"><path class="a" d="M12.57,15.271V9.759c0-1.385-.5-2.329-1.737-2.329a1.877,1.877,0,0,0-1.76,1.252,2.356,2.356,0,0,0-.112.835v5.755H5.53s.045-9.337,0-10.3H8.96v1.46a3.406,3.406,0,0,1,3.091-1.7C14.308,4.725,16,6.2,16,9.364v5.908ZM.2,15.271V4.967h3.43v10.3ZM1.9,3.56A1.785,1.785,0,1,1,1.94,0a1.786,1.786,0,1,1-.022,3.56Z"/><g class="b"><g transform="translate(-1 -1)"><rect class="c" width="18" height="18" rx="4"/></g></g></g></svg>