<svg xmlns="http://www.w3.org/2000/svg" xmlns:xlink="http://www.w3.org/1999/xlink" width="18" height="18" viewBox="0 0 18 18"><defs><style>.a{fill:#212b36;}.b{clip-path:url(#a);}.c{fill:#f5f6f6;}</style><clipPath id="a"><path class="a" d="M4.057,15.942a5.413,5.413,0,0,1-1.813-.337,3.022,3.022,0,0,1-1.122-.73,3.027,3.027,0,0,1-.73-1.122,5.377,5.377,0,0,1-.337-1.812C.01,10.93,0,10.624,0,8S.01,5.068.056,4.056A5.4,5.4,0,0,1,.392,2.244a3.022,3.022,0,0,1,.73-1.122A3.045,3.045,0,0,1,2.245.392,5.4,5.4,0,0,1,4.057.055C4.972.014,5.316,0,7.124,0c.083,0,.171,0,.248,0H8c2.624,0,2.93.01,3.943.056a5.42,5.42,0,0,1,1.813.336,3.033,3.033,0,0,1,1.121.73,3.045,3.045,0,0,1,.73,1.122,5.4,5.4,0,0,1,.337,1.812C15.99,5.107,16,5.419,16,8s-.01,2.894-.057,3.942a5.4,5.4,0,0,1-.337,1.812,3.234,3.234,0,0,1-1.851,1.851,5.38,5.38,0,0,1-1.813.336C10.9,15.99,10.587,16,8,16S5.1,15.99,4.057,15.942ZM2.989,8A5.011,5.011,0,1,0,8,2.991,5.017,5.017,0,0,0,2.989,8Zm9.049-5.21a1.171,1.171,0,1,0,1.171-1.171A1.173,1.173,0,0,0,12.038,2.794ZM4.747,8A3.253,3.253,0,1,1,8,11.257,3.253,3.253,0,0,1,4.747,8Z"/></clipPath></defs><g transform="translate(1 1)"><path class="a" d="M4.057,15.942a5.413,5.413,0,0,1-1.813-.337,3.022,3.022,0,0,1-1.122-.73,3.027,3.027,0,0,1-.73-1.122,5.377,5.377,0,0,1-.337-1.812C.01,10.93,0,10.624,0,8S.01,5.068.056,4.056A5.4,5.4,0,0,1,.392,2.244a3.022,3.022,0,0,1,.73-1.122A3.045,3.045,0,0,1,2.245.392,5.4,5.4,0,0,1,4.057.055C4.972.014,5.316,0,7.124,0c.083,0,.171,0,.248,0H8c2.624,0,2.93.01,3.943.056a5.42,5.42,0,0,1,1.813.336,3.033,3.033,0,0,1,1.121.73,3.045,3.045,0,0,1,.73,1.122,5.4,5.4,0,0,1,.337,1.812C15.99,5.107,16,5.419,16,8s-.01,2.894-.057,3.942a5.4,5.4,0,0,1-.337,1.812,3.234,3.234,0,0,1-1.851,1.851,5.38,5.38,0,0,1-1.813.336C10.9,15.99,10.587,16,8,16S5.1,15.99,4.057,15.942ZM2.989,8A5.011,5.011,0,1,0,8,2.991,5.017,5.017,0,0,0,2.989,8Zm9.049-5.21a1.171,1.171,0,1,0,1.171-1.171A1.173,1.173,0,0,0,12.038,2.794ZM4.747,8A3.253,3.253,0,1,1,8,11.257,3.253,3.253,0,0,1,4.747,8Z"/><g class="b"><g transform="translate(-1 -1)"><rect class="c" width="18" height="18" rx="4"/></g></g></g></svg>