<svg xmlns="http://www.w3.org/2000/svg" width="130.833" height="39.554" viewBox="0 0 130.833 39.554"><defs><style>.a,.b,.c{fill:#fff;}.a{fill-rule:evenodd;}.c{font-size:24px;font-family:CopperplateGothic-Bold, Copperplate Gothic;font-weight:700;}</style></defs><path class="a" d="M71.716,65.816c-.009.637-.016,1.324-.016,2.069,0,12,1.578,9.274-8.819,15.277-10.143,5.855-7.391,6-16.9.427,2.112.037,4.2.076,4.489.092a4.846,4.846,0,0,0,2.923-.75,6.354,6.354,0,0,0,2.53-3.863c.522-1.887.826-3.591,1.09-5.072.1-.558.706-3.331.8-3.808h-.024c.434-2.089.851-3.8,1.419-4.055a13.248,13.248,0,0,1,4.487-.395C64.338,65.754,68.384,65.785,71.716,65.816Z" transform="translate(-36.338 -48.108)"/><path class="a" d="M44.544,19.1c1.228.709,2.288,1.3,3.2,1.8-5.134-.04-10.85-.09-11.176-.107a4.834,4.834,0,0,0-2.923.751A6.353,6.353,0,0,0,31.12,25.4c-.522,1.887-.826,3.591-1.091,5.073-.1.556-.193,1.08-.287,1.559h0c-.218,1.011-.639,2.955-.7,3.223-.363,1.627-.734,2.868-1.211,3.08-1.112.493-6.61.441-9.805.349.025-1.182.058-2.6.058-4.315,0-12-1.577-9.273,8.819-15.275S34.147,13.1,44.544,19.1Z" transform="translate(-18 -14.597)"/><path class="b" d="M65.793,46.2h-.012l-.811,1.786a.949.949,0,1,1-1.254-.084l-.727-1.124a.932.932,0,0,1-1.311-.129l-2.451.963a.946.946,0,1,1-1.293-1.024l-.256-1.5c-.032,0-.062.009-.095.009a.946.946,0,0,1-.782-.414l-2.782,1.315a.958.958,0,0,1,.013.126.947.947,0,0,1-1.735.525l-2.653.854a.919.919,0,0,1-.256.968l1.228,1.822a.947.947,0,1,1-.2,1.437l-3.5,1.381a.941.941,0,0,1-.679,1.108l.687,3.438a1.182,1.182,0,1,1-.731,2.157L44.8,61.053a1.168,1.168,0,0,1-.2,1.6l1.07,1.758a1.165,1.165,0,0,1,.547-.14,1.2,1.2,0,1,1-1.141.887L41.01,63.778a1.456,1.456,0,0,1-2.185.52l-.484,1.454a1.18,1.18,0,0,1,.133,2.217c2.6.043,6.693.113,7.085.135a3.069,3.069,0,0,0,1.853-.464A4.663,4.663,0,0,0,49.192,64.8c.484-1.752.786-3.442,1.048-4.911.073-.406.594-2.778.721-3.4h-.023c.568-2.771,1.13-5.164,2.54-5.788,1.294-.575,3.913-.6,5.839-.525.511.019,4.244.045,7.425.069a29.542,29.542,0,0,0-.086-4.61A.946.946,0,0,1,65.793,46.2Z" transform="translate(-31.333 -34.314)"/><path class="b" d="M29.237,56.955,31.194,61.5a1.178,1.178,0,0,1,.843-.355c.014,0,.026,0,.04,0l.543-1.627a1.462,1.462,0,1,1,2.527-.574l4.071,1.387a1.183,1.183,0,0,1,.238-.3L38.38,58.269a1.166,1.166,0,0,1-.5.115,1.184,1.184,0,1,1,.747-2.1l1.367-1.231a1.178,1.178,0,0,1,.652-1.939L39.961,49.7a.946.946,0,1,1,.866-1.416l3.448-1.358a.931.931,0,0,1,.145-.986l-1.248-1.852a.946.946,0,1,1,.372-1.405l2.662-.857a.943.943,0,0,1,1.757-.666l2.745-1.3a.945.945,0,1,1,1.29.6l.257,1.511c.023,0,.045-.007.069-.007a.946.946,0,0,1,.93.777l2.3-.9A.948.948,0,1,1,57.228,42l.781,1.207a.9.9,0,0,1,.746.049l.756-1.665a.946.946,0,1,1,.839-1.679,4.99,4.99,0,0,0-2.061-2.038c-5.624-.042-14.065-.11-14.45-.132a3.078,3.078,0,0,0-1.853.464,4.666,4.666,0,0,0-1.781,2.842c-.484,1.751-.786,3.442-1.048,4.91-.041.23-.081.455-.121.674h.016c-.071.347-.734,3.412-.807,3.743-.507,2.321-1.092,4.222-2.326,4.768-.886.393-3.48.527-6.118.55a1.173,1.173,0,0,1-.564,1.262Z" transform="translate(-25.365 -29.764)"/><path class="b" d="M23.626,95.855,21.6,91.14a1.17,1.17,0,0,1-.32.049,1.184,1.184,0,0,1-1.185-1.183,1.168,1.168,0,0,1,.028-.25c-.763-.009-1.485-.025-2.12-.043-.018,4.342.6,4.567,5.718,7.384a1.157,1.157,0,0,1-.093-1.242Z" transform="translate(-18 -63.833)"/><path class="b" d="M117.462,37.136a1.274,1.274,0,1,0-1.274-1.274A1.274,1.274,0,0,0,117.462,37.136Z" transform="translate(-82.359 -27.701)"/><path class="b" d="M127.95,46.949a1.184,1.184,0,1,0-1.184,1.185A1.185,1.185,0,0,0,127.95,46.949Z" transform="translate(-88.516 -35.026)"/><circle class="b" cx="0.672" cy="0.672" r="0.672" transform="translate(39.552 5.528)"/><path class="b" d="M122.918,53.555a.888.888,0,1,0,.889.889A.888.888,0,0,0,122.918,53.555Z" transform="translate(-86.188 -40.133)"/><path class="b" d="M135.952,51.15a.632.632,0,1,0,.632.632A.632.632,0,0,0,135.952,51.15Z" transform="translate(-94.899 -38.556)"/><path class="b" d="M132.213,57.287a1.182,1.182,0,1,0,1.182,1.182A1.181,1.181,0,0,0,132.213,57.287Z" transform="translate(-92.089 -42.579)"/><path class="b" d="M126.786,39.353a.632.632,0,1,0-.632-.631A.631.631,0,0,0,126.786,39.353Z" transform="translate(-88.891 -29.996)"/><path class="b" d="M135.592,37.975a1.3,1.3,0,1,0,1.3,1.3A1.3,1.3,0,0,0,135.592,37.975Z" transform="translate(-94.224 -29.921)"/><text class="c" transform="translate(43.833 26.494)"><tspan x="0" y="0">SoPro</tspan></text></svg>