<svg id="OBJECTS" xmlns="http://www.w3.org/2000/svg" viewBox="0 0 190.79 95.99"><defs><style>.cls-1{fill:#ff8154;}.cls-2{fill:#ff946e;}.cls-3{fill:#ffa17f;}.cls-4{fill:#ffb094;}.cls-5{fill:#fff;}.cls-6{fill:#260b42;}.cls-7{fill:#fcb237;}</style></defs><title>hand</title><path class="cls-1" d="M362,254.26l-11.8,6a7.71,7.71,0,0,0-2.34,11.94l17.66,20.28S380,278.11,364,270.73l8.48-4.59Z" transform="translate(-309.21 -225.01)"/><path class="cls-2" d="M363,244.85l-12.43,4.51a7.7,7.7,0,0,0-3.75,11.57l15.09,22.25s16-12.5,1.09-21.75l9-3.53Z" transform="translate(-309.21 -225.01)"/><path class="cls-3" d="M428.36,277.2h-5.72a28.74,28.74,0,0,1-19.51-7.63l-44.78-41.33a12.2,12.2,0,0,0-8.28-3.23H332.4a12.27,12.27,0,0,0-5.84,1.48l-15,7.74a4.28,4.28,0,0,0-.41,7.35c3.93,2.64,10.62,3.86,20.63-4.61l17.13,3s18,13.59,17.82,21.2S362,286,350.63,283.43c-9.84-2.25-20.32-6.71-26.23-3a5.34,5.34,0,0,0,.25,9.14,65.69,65.69,0,0,0,27.74,7.83c9.24.63,44.56,7,76,7Z" transform="translate(-309.21 -225.01)"/><path class="cls-4" d="M311.56,233.83s0,9.59,14.05,0l-2.55-5.91Z" transform="translate(-309.21 -225.01)"/><path class="cls-4" d="M325.56,290.66s-1.17-9.52,13.95-1.72l-1.82,6.19Z" transform="translate(-309.21 -225.01)"/><rect class="cls-5" x="109.29" y="39.69" width="25.01" height="48.45"/><rect class="cls-6" x="126.14" y="31.83" width="64.64" height="64.16"/><path class="cls-7" d="M462.36,271.64a3.93,3.93,0,1,0-3.93,3.93A3.92,3.92,0,0,0,462.36,271.64Z" transform="translate(-309.21 -225.01)"/><path class="cls-7" d="M480.5,271.64a3.93,3.93,0,1,0-3.93,3.93A3.92,3.92,0,0,0,480.5,271.64Z" transform="translate(-309.21 -225.01)"/></svg>