<svg xmlns="http://www.w3.org/2000/svg" viewBox="0 0 159.87 159.87"><defs><style>.cls-1,.cls-2{fill:none;stroke:#fff;stroke-miterlimit:10;}.cls-1{stroke-width:3.73px;}.cls-2{stroke-width:10px;}</style></defs><title>Asset 3linkedin-icon</title><g id="Layer_2" data-name="Layer 2"><g id="components"><path class="cls-1" d="M122.46,82v28H106.25V83.9c0-6.55-2.34-11-8.2-11a8.88,8.88,0,0,0-8.32,5.92,11,11,0,0,0-.53,4V110H73s.22-44.18,0-48.75H89.2v6.91s-.09.1-.12.16h.12v-.16c2.15-3.32,6-8,14.6-8,10.66,0,18.66,7,18.66,21.93ZM56,37.73c-5.55,0-9.17,3.64-9.17,8.42s3.52,8.43,9,8.43h.1c5.66,0,9.17-3.75,9.17-8.43S61.58,37.73,56,37.73ZM47.82,110H64V61.23H47.82Z"/><circle class="cls-2" cx="79.94" cy="79.94" r="74.94"/></g></g></svg>