<?xml version="1.0" encoding="utf-8"?>
<!-- Generator: Adobe Illustrator 23.0.3, SVG Export Plug-In . SVG Version: 6.00 Build 0)  -->
<svg version="1.1" id="Capa_1" xmlns="http://www.w3.org/2000/svg" xmlns:xlink="http://www.w3.org/1999/xlink" x="0px" y="0px"
	 viewBox="0 0 512 512" style="enable-background:new 0 0 512 512;" xml:space="preserve">
<style type="text/css">
	.st0{fill:#FFFFFF;}
</style>
<path class="st0" d="M512,203.1L512,203.1c0-0.5,0-0.9-0.1-1.3c0-0.1,0-0.2,0-0.3c0-0.3-0.1-0.7-0.1-1c0-0.1,0-0.2-0.1-0.4
	c-0.1-0.4-0.2-0.8-0.3-1.2c0,0,0-0.1,0-0.1c-0.1-0.4-0.3-0.8-0.4-1.2c-0.1-0.1-0.1-0.3-0.2-0.4c-0.1-0.3-0.2-0.5-0.4-0.8
	c-0.1-0.1-0.1-0.3-0.2-0.4c-0.2-0.4-0.4-0.7-0.6-1c-0.1-0.1-0.2-0.2-0.3-0.4c-0.2-0.2-0.3-0.5-0.5-0.7c-0.1-0.1-0.2-0.2-0.3-0.4
	c-0.3-0.3-0.5-0.6-0.8-0.9c0,0,0,0-0.1-0.1c-0.3-0.3-0.6-0.6-1-0.9c0,0-0.1-0.1-0.1-0.1L481,170.2V105c0-19.3-15.7-35-35-35h-85.8
	l-69.1-57.3c-20.4-16.9-49.9-16.9-70.2,0L151.8,70H66c-19.3,0-35,15.7-35,35v65.2L5.4,191.5c0,0-0.1,0.1-0.1,0.1
	c-0.3,0.3-0.7,0.6-1,0.9c0,0,0,0-0.1,0.1c-0.3,0.3-0.6,0.6-0.8,0.9c-0.1,0.1-0.2,0.2-0.3,0.4c-0.2,0.2-0.4,0.5-0.5,0.7
	c-0.1,0.1-0.2,0.2-0.3,0.4c-0.2,0.3-0.4,0.7-0.6,1c-0.1,0.1-0.1,0.3-0.2,0.4c-0.1,0.3-0.2,0.5-0.4,0.8c-0.1,0.1-0.1,0.3-0.2,0.4
	c-0.1,0.4-0.3,0.8-0.4,1.2c0,0,0,0.1,0,0.1c-0.1,0.4-0.2,0.8-0.3,1.2c0,0.1,0,0.2-0.1,0.4c-0.1,0.3-0.1,0.7-0.1,1c0,0.1,0,0.2,0,0.3
	c0,0.4-0.1,0.8-0.1,1.3v0v0V457c0,15.7,6.6,29.9,17.2,39.9c0.3,0.3,0.6,0.6,0.9,0.9C27.9,506.6,40.8,512,55,512h402
	c14.2,0,27.1-5.4,36.8-14.2c0.3-0.3,0.6-0.6,0.9-0.9c10.6-10,17.3-24.2,17.3-39.9L512,203.1C512,203.1,512,203.1,512,203.1
	L512,203.1z M66,100h380c2.8,0,5,2.2,5,5v116.7l-8.5,7L272,370.3c-9.3,7.7-22.7,7.7-31.9,0L69.5,228.7l-8.5-7V105
	C61,102.3,63.2,100,66,100z M30,457V235l6.5,5.4c0,0,0,0,0,0l146.5,121.6L31.5,465.6C30.5,462.9,30,460,30,457z M206.9,381.8
	l13.9,11.6c20.4,16.9,49.9,16.9,70.2,0l13.9-11.6L451.3,482H60.7L206.9,381.8z M329.1,361.9l146.5-121.6c0,0,0,0,0,0l6.5-5.4v222
	c0,3-0.5,5.9-1.5,8.6L329.1,361.9z M240,35.8c9.3-7.7,22.7-7.7,31.9,0L313.2,70H198.8L240,35.8z"/>
<path class="st0" d="M131.5,165c0,8.3,6.7,15,15,15h142c8.3,0,15-6.7,15-15s-6.7-15-15-15h-142C138.2,150,131.5,156.7,131.5,165z"/>
<path class="st0" d="M146.5,240h219c7,0,12.8-4.8,14.5-11.3c0.3-1.2,0.5-2.4,0.5-3.7c0-8.3-6.7-15-15-15h-219c-8.3,0-15,6.7-15,15
	c0,1.3,0.2,2.5,0.5,3.7C133.7,235.2,139.5,240,146.5,240z"/>
</svg>
