<svg id="OBJECTS" xmlns="http://www.w3.org/2000/svg" viewBox="0 0 391.36 323.65"><defs><style>.cls-1{fill:#4498ab;}.cls-2,.cls-5{fill:#fff;}.cls-3{fill:#532c7b;}.cls-4{fill:#350d65;}.cls-5{opacity:0.1;}</style></defs><title>339471-PAMR5G-653</title><path class="cls-1" d="M445.68,405c0-3.59-87.61-6.51-195.68-6.51S54.32,401.38,54.32,405s87.61,6.52,195.68,6.52S445.68,408.57,445.68,405Z" transform="translate(-54.32 -87.84)"/><rect class="cls-2" x="91.43" y="155.5" width="317.13" height="181.8" rx="17.77" transform="translate(-50.73 408.57) rotate(-90)"/><path class="cls-3" d="M182,94.68H318a16.08,16.08,0,0,1,16.06,16.06V347.9a16,16,0,0,1-9,14.41A15.84,15.84,0,0,1,318,364H182a16.06,16.06,0,0,1-16.06-16.07V110.74A16.06,16.06,0,0,1,182,94.68Z" transform="translate(-54.32 -87.84)"/><path class="cls-2" d="M291.69,87.84l-2.13,6.84a21.43,21.43,0,0,1-20.45,15H230.89a21.43,21.43,0,0,1-20.45-15l-2.13-6.84Z" transform="translate(-54.32 -87.84)"/><circle class="cls-4" cx="250" cy="384.47" r="11.85" transform="translate(-197.52 532.67) rotate(-87.94)"/><path class="cls-4" d="M269.82,100.85h0a4.11,4.11,0,0,1-4.1,4.1H234.28a4.11,4.11,0,0,1-4.1-4.1h0a4.1,4.1,0,0,1,4.1-4.1h31.44A4.1,4.1,0,0,1,269.82,100.85Z" transform="translate(-54.32 -87.84)"/><path class="cls-5" d="M170,110V350.53a7.29,7.29,0,0,0,7.29,7.29h0V102.66h0A7.29,7.29,0,0,0,170,110Z" transform="translate(-54.32 -87.84)"/><path class="cls-5" d="M330,350.53V110a7.29,7.29,0,0,0-7.29-7.29h0V357.82h0A7.29,7.29,0,0,0,330,350.53Z" transform="translate(-54.32 -87.84)"/></svg>