<svg xmlns="http://www.w3.org/2000/svg" viewBox="0 0 159.87 159.87"><defs><style>.cls-1,.cls-2{fill:none;stroke:#fff;stroke-miterlimit:10;}.cls-1{stroke-width:3.73px;}.cls-2{stroke-width:10px;}</style></defs><title>Asset 4twitter-icon</title><g id="Layer_2" data-name="Layer 2"><g id="components"><path class="cls-1" d="M125.08,56.4a34,34,0,0,1-9.74,2.67,17,17,0,0,0,7.45-9.39A33.71,33.71,0,0,1,112,53.8,17,17,0,0,0,83.12,69.27a48.17,48.17,0,0,1-35-17.72,17,17,0,0,0,5.25,22.64,16.89,16.89,0,0,1-7.68-2.12,1.48,1.48,0,0,0,0,.21A17,17,0,0,0,59.33,88.91a16.86,16.86,0,0,1-4.47.6,17.69,17.69,0,0,1-3.19-.3A17,17,0,0,0,67.51,101a34,34,0,0,1-21.06,7.26,33.6,33.6,0,0,1-4-.23,48,48,0,0,0,26,7.62c31.2,0,48.26-25.84,48.26-48.26,0-.73,0-1.47,0-2.19a34.49,34.49,0,0,0,8.47-8.78Z"/><circle id="we" class="cls-2" cx="79.94" cy="79.94" r="74.94"/></g></g></svg>