<svg xmlns="http://www.w3.org/2000/svg" width="21" height="21.002" viewBox="0 0 21 21.002"><defs><style>.a{fill:#aebac4;stroke:rgba(0,0,0,0);stroke-miterlimit:10;}</style></defs><path class="a" d="M-10408.071,5815.629a9.673,9.673,0,0,1-3.56-3.581A9.834,9.834,0,0,1-10413,5807a9.848,9.848,0,0,1,1.369-5.049,9.913,9.913,0,0,1,3.583-3.581A9.838,9.838,0,0,1-10403,5797a9.866,9.866,0,0,1,5.07,1.372,9.536,9.536,0,0,1,3.56,3.557A9.877,9.877,0,0,1-10393,5807a9.864,9.864,0,0,1-1.369,5.072,9.5,9.5,0,0,1-3.56,3.557A9.842,9.842,0,0,1-10403,5817,9.844,9.844,0,0,1-10408.071,5815.629Zm1.032-15.552a7.854,7.854,0,0,0-2.885,2.885,7.843,7.843,0,0,0-1.105,4.038,7.827,7.827,0,0,0,1.105,4.038,7.818,7.818,0,0,0,2.885,2.885,7.843,7.843,0,0,0,4.04,1.105,7.857,7.857,0,0,0,4.038-1.105,7.825,7.825,0,0,0,2.885-2.885,7.827,7.827,0,0,0,1.105-4.038,7.843,7.843,0,0,0-1.105-4.038,7.861,7.861,0,0,0-2.885-2.885,7.885,7.885,0,0,0-4.038-1.105A7.872,7.872,0,0,0-10407.039,5800.077Zm3.053,11.948v-4.038h-4.038v-1.973h4.038v-4.038h1.973v4.038h4.038v1.973h-4.038v4.038Z" transform="translate(10413.5 -5796.499)"/></svg>