<svg xmlns="http://www.w3.org/2000/svg" width="32" height="23.226" viewBox="0 0 32 23.226"><defs><style>.a{fill:#7b7371;}.b{fill:#9e9795;}.c{fill:#e6af78;}.d{fill:#d29b6e;}.e{fill:#5489b5;}.f{fill:#adc9e1;}.g{fill:#f3cfc6;}.h{fill:#f1d8d2;}.i{fill:#3e2c30;}.j{fill:#5a4146;}.k{fill:rgba(0,0,0,0.08);}.l{fill:#184a4b;}.m{fill:#0ea185;}.n{fill:#32393f;}.o{fill:#474f54;}.p{opacity:0.06;}</style></defs><g transform="translate(0 -70.193)"><path class="a" d="M2.551,3V6.122H1.02L.209,3.69A4.118,4.118,0,0,1,0,2.4V2.041A1.531,1.531,0,0,1,1.406.515,1.528,1.528,0,0,1,2.551,0h3.57a1.02,1.02,0,0,1,1.02,1.02V1.98A4.073,4.073,0,0,1,6.985,3.1L6.122,6.122Z" transform="translate(23.327 77.968)"/><path class="b" d="M6.122,6.122l0,0-1.142-1H6.408l-.285,1Zm-3.57,0H1.02L.209,3.69A4.114,4.114,0,0,1,0,2.4V2.041A1.539,1.539,0,0,1,1.407.515,1.532,1.532,0,0,1,2.551,0H3.8V4.092L2.551,3V6.12Z" transform="translate(23.327 77.968)"/><rect class="c" width="3.061" height="2.258" transform="translate(25.367 85.697)"/><path class="d" d="M404.645,318.872a4.048,4.048,0,0,0,3.061,0v-.937h-3.061v.937Z" transform="translate(-379.277 -232.248)"/><path class="e" d="M355.932,338.671l-2.461-.7-1.53,1.016-1.53-1.016-2.461.7a1.53,1.53,0,0,0-1.11,1.472v3.73a.51.51,0,0,0,.51.51h9.183a.51.51,0,0,0,.51-.51v-3.73A1.531,1.531,0,0,0,355.932,338.671Z" transform="translate(-325.042 -250.964)"/><path class="f" d="M5.332,6.414H.511A.511.511,0,0,1,0,5.9V2.176A1.538,1.538,0,0,1,1.11.7L3.572,0,5.1,1.016l.23-.153v5.55Z" transform="translate(21.728 87.004)"/><path class="g" d="M382.932,241.061h0A3.061,3.061,0,0,1,379.871,238v-.6a1.021,1.021,0,0,1,.3-.721l.925-.925a1.008,1.008,0,0,1,.741-.3,5.933,5.933,0,0,1,3.863,1.172,1.007,1.007,0,0,1,.294.723V238A3.061,3.061,0,0,1,382.932,241.061Z" transform="translate(-356.034 -154.895)"/><path class="h" d="M3.061,5.606A3.064,3.064,0,0,1,0,2.545v-.6a1.013,1.013,0,0,1,.3-.721L1.224.3A1.019,1.019,0,0,1,1.938,0h.028A11.032,11.032,0,0,1,3.291.118V5.6C3.2,5.6,3.13,5.606,3.061,5.606Z" transform="translate(23.774 80.56)"/><g transform="translate(24.803 86.538)"><path class="e" d="M397.607,332.831l-.865.66a.306.306,0,0,1-.454-.1l-.776-1.417.312-.476a.2.2,0,0,1,.309-.038Z" transform="translate(-395.512 -331.41)"/><path class="f" d="M429.419,332.832l.865.661a.306.306,0,0,0,.454-.1l.776-1.417-.312-.476a.2.2,0,0,0-.309-.038Z" transform="translate(-427.324 -331.411)"/></g><path class="i" d="M11.063,205.109a18.412,18.412,0,0,1-.856-4.175,3.7,3.7,0,0,0-3.629-3.571,3.7,3.7,0,0,0-3.629,3.571,18.413,18.413,0,0,1-.856,4.175.508.508,0,0,0,.266.649,9.744,9.744,0,0,0,2.664.788h3.11a9.83,9.83,0,0,0,2.664-.788A.508.508,0,0,0,11.063,205.109Z" transform="translate(-1.931 -119.161)"/><path class="j" d="M4.595,9.183H2.965A9.7,9.7,0,0,1,.3,8.4a.508.508,0,0,1-.266-.65A18.359,18.359,0,0,0,.891,3.572,3.711,3.711,0,0,1,4.52,0h.075V9.181Z" transform="translate(0.127 78.202)"/><path class="g" d="M8.337,312.947l-1.651-.825a1.02,1.02,0,0,1-.564-.913v-1.531H3.061v1.531a1.02,1.02,0,0,1-.564.913l-1.651.826A1.53,1.53,0,0,0,0,314.316v3.015a.51.51,0,0,0,.51.51H8.673a.51.51,0,0,0,.51-.51v-3.015A1.53,1.53,0,0,0,8.337,312.947Z" transform="translate(0 -224.422)"/><path class="h" d="M8.673,8.163H.511A.511.511,0,0,1,0,7.652V4.637A1.522,1.522,0,0,1,.846,3.269L2.5,2.443a1.015,1.015,0,0,0,.564-.912V0H4.722V5.324H8.57V3.413a1.537,1.537,0,0,1,.613,1.225V7.652A.511.511,0,0,1,8.673,8.163Z" transform="translate(0 85.256)"/><path class="k" d="M50.66,311.718a4.032,4.032,0,0,0,1.558-.315,1.006,1.006,0,0,1-.027-.2v-1.531H49.13v1.531a1,1,0,0,1-.028.2A4.052,4.052,0,0,0,50.66,311.718Z" transform="translate(-46.069 -224.499)"/><path class="e" d="M8.337,353.656l-1.176-.588a3.057,3.057,0,0,1-5.139,0l-1.176.588A1.53,1.53,0,0,0,0,355.025v3.015a.51.51,0,0,0,.51.51H8.673a.51.51,0,0,0,.51-.51v-3.015A1.53,1.53,0,0,0,8.337,353.656Z" transform="translate(0 -265.131)"/><path class="f" d="M5.072,5.481H.511A.511.511,0,0,1,0,4.972V1.957A1.524,1.524,0,0,1,.846.588L2.022,0a3.051,3.051,0,0,0,2.57,1.4,3.086,3.086,0,0,0,.48-.038V5.48Z" transform="translate(0 87.937)"/><path class="g" d="M28.153,249.985h0a3.062,3.062,0,0,1-3.036-2.665.514.514,0,0,1,.273-.53,4.26,4.26,0,0,0,.9-.61,2.946,2.946,0,0,0,.7-.919.5.5,0,0,1,.575-.28,8.79,8.79,0,0,1,3.463,1.774.494.494,0,0,1,.176.41A3.061,3.061,0,0,1,28.153,249.985Z" transform="translate(-23.561 -163.815)"/><path class="h" d="M3.04,5.019A3.067,3.067,0,0,1,0,2.353a.519.519,0,0,1,.273-.531,4.217,4.217,0,0,0,.9-.609,2.965,2.965,0,0,0,.7-.92A.515.515,0,0,1,2.335,0a.48.48,0,0,1,.119.015c.24.061.481.134.717.217V5.016l-.05,0Z" transform="translate(1.551 81.151)"/><path class="l" d="M131.956,327.744l-4.359-1.552-3.126,1.02-3.126-1.02-4.36,1.552a2.043,2.043,0,0,0-1.372,1.918v3.162a.516.516,0,0,0,.521.51h16.673a.516.516,0,0,0,.521-.51v-3.162A2.043,2.043,0,0,0,131.956,327.744Z" transform="translate(-108.471 -239.916)"/><path class="m" d="M8.423,7.142H.511A.511.511,0,0,1,0,6.633V3.47A2.048,2.048,0,0,1,1.343,1.552L5.612,0,8.423.937v6.2Z" transform="translate(7.256 86.276)"/><path class="n" d="M176.385,75.487V71.213a1.02,1.02,0,0,0-1.02-1.02h-6.122a4.081,4.081,0,0,0-4.081,4.081v1.213a5.1,5.1,0,0,0,.262,1.613l.17.509a1.53,1.53,0,0,1,.079.484v.262h10.2v-.262a1.531,1.531,0,0,1,.078-.484l.17-.509A5.1,5.1,0,0,0,176.385,75.487Z" transform="translate(-154.773)"/><path class="o" d="M10.714,8.163H.511V7.9a1.506,1.506,0,0,0-.079-.484L.262,6.907A5.093,5.093,0,0,1,0,5.293V4.081A4.086,4.086,0,0,1,4.081,0h1.63V7.877h5v.284Z" transform="translate(10.384 70.193)"/><rect class="g" width="6.122" height="4.591" transform="translate(12.939 82.616)"/><path class="h" d="M3.511,4.591H0V0H3.511V4.589Z" transform="translate(12.922 82.616)"/><g transform="translate(11.919 85.367)"><path class="l" d="M194.017,314.313l-1.627,1.627a.51.51,0,0,1-.767-.052l-1.687-2.223.441-.93a.51.51,0,0,1,.728-.216Z" transform="translate(-189.936 -312.443)"/><path class="m" d="M256,314.313l1.627,1.627a.51.51,0,0,0,.767-.052l1.687-2.223-.441-.93a.51.51,0,0,0-.728-.216Z" transform="translate(-251.919 -312.443)"/></g><path class="p" d="M52.163,311.718a14.777,14.777,0,0,0,3.061-.315.558.558,0,0,1-.054-.2v-1.531H49.156v1.531a.557.557,0,0,1-.054.2A14.856,14.856,0,0,0,52.163,311.718Z" transform="translate(-36.163 -226.625)"/><path class="g" d="M178.521,146.783h0a5.1,5.1,0,0,1-5.1-5.1v-.6a1.02,1.02,0,0,1,.3-.721l.423-.423a1.02,1.02,0,0,0,.3-.722V138a.506.506,0,0,1,.389-.5c1.207-.285,4.961-.96,7.516.919a.654.654,0,0,1,.258.528v.271a1.021,1.021,0,0,0,.3.722l.423.423a1.02,1.02,0,0,1,.3.721v.6A5.1,5.1,0,0,1,178.521,146.783Z" transform="translate(-162.521 -62.732)"/><path class="h" d="M5.2,9.638H5.1A5.107,5.107,0,0,1,0,4.536v-.6a1.013,1.013,0,0,1,.3-.721l.422-.422a1.013,1.013,0,0,0,.3-.721V.85a.506.506,0,0,1,.389-.5,13.527,13.527,0,0,1,3-.354c.267,0,.532.009.788.028v9.61Z" transform="translate(10.863 74.413)"/></g></svg>