<svg width="21" height="22" viewBox="0 0 21 22" fill="none" xmlns="http://www.w3.org/2000/svg">
<g clip-path="url(#clip0)">
<path d="M5.4288 19.13C3.94601 18.2726 2.71792 17.0368 1.86923 15.549C0.965588 14.0208 0.492381 12.2765 0.500093 10.5011C0.492898 8.7255 0.966062 6.98111 1.86923 5.45231C2.73327 3.96848 3.96793 2.73446 5.45224 1.87126C6.98046 0.967445 8.72463 0.493929 10.5001 0.501138C12.283 0.491954 14.0354 0.96616 15.5704 1.87321C17.0542 2.71871 18.2832 3.94729 19.13 5.43034C20.036 6.96603 20.5095 8.71813 20.5001 10.5011C20.5106 12.2845 20.0374 14.0371 19.131 15.5729C18.2856 17.057 17.0562 18.286 15.5714 19.13C14.0365 20.038 12.2834 20.512 10.5001 20.5011C8.71678 20.5119 6.96375 20.0379 5.4288 19.13ZM6.46103 3.57829C5.26201 4.26902 4.26699 5.26403 3.57626 6.46305C2.84886 7.68407 2.46645 9.07988 2.4708 10.5011C2.46565 11.9225 2.84812 13.3185 3.57626 14.5392C4.26562 15.7393 5.26096 16.7346 6.46103 17.424C7.68263 18.1517 9.07913 18.5337 10.5011 18.529C11.9222 18.5326 13.3179 18.1507 14.5392 17.424C15.739 16.7344 16.7343 15.7391 17.4239 14.5392C18.1521 13.3185 18.5345 11.9225 18.5294 10.5011C18.5337 9.07988 18.1513 7.68407 17.4239 6.46305C16.7329 5.26423 15.738 4.26928 14.5392 3.57829C13.3173 2.85283 11.922 2.47106 10.5011 2.47331C9.07933 2.47005 7.6832 2.85188 6.46103 3.57829ZM9.51376 11.488H5.47568V9.5153H9.51376H11.4874H15.5255V11.488H11.4874H9.51376Z" fill="white" stroke="black"/>
</g>
<defs>
<clipPath id="clip0">
<rect width="21" height="21.002" fill="white"/>
</clipPath>
</defs>
</svg>
