<svg xmlns="http://www.w3.org/2000/svg" xmlns:xlink="http://www.w3.org/1999/xlink" width="18" height="18" viewBox="0 0 18 18"><defs><style>.a{fill:#212b36;}.b{clip-path:url(#a);}.c{fill:#f5f6f6;}</style><clipPath id="a"><path class="a" d="M4.964,16V8H7.173l.293-2.757h-2.5l0-1.38c0-.719.068-1.1,1.1-1.1H7.45V0H5.241C2.588,0,1.654,1.338,1.654,3.587V5.242H0V8H1.654v8Z"/></clipPath></defs><g transform="translate(5 1)"><path class="a" d="M4.964,16V8H7.173l.293-2.757h-2.5l0-1.38c0-.719.068-1.1,1.1-1.1H7.45V0H5.241C2.588,0,1.654,1.338,1.654,3.587V5.242H0V8H1.654v8Z"/><g class="b"><g transform="translate(-5 -1)"><rect class="c" width="18" height="18" rx="4"/></g></g></g></svg>