<svg xmlns="http://www.w3.org/2000/svg" xmlns:xlink="http://www.w3.org/1999/xlink" width="18" height="18" viewBox="0 0 18 18"><defs><style>.a{fill:#212b36;}.b{clip-path:url(#a);}.c{fill:#f5f6f6;}</style><clipPath id="a"><path class="a" d="M7.769,3.517l.035.572-.578-.07a9.4,9.4,0,0,1-5.5-2.708L.96.553l-.2.56A3.368,3.368,0,0,0,1.48,4.568c.462.49.358.56-.439.268A1.363,1.363,0,0,0,.5,4.708,4.182,4.182,0,0,0,.913,6.272,3.733,3.733,0,0,0,2.5,7.766l.566.268-.671.012c-.647,0-.671.012-.6.257a3.5,3.5,0,0,0,2.162,1.914l.717.245-.624.373a6.509,6.509,0,0,1-3.1.864A3.423,3.423,0,0,0,0,11.792a8.8,8.8,0,0,0,2.231,1.027,9.765,9.765,0,0,0,7.584-.864,10.149,10.149,0,0,0,3.85-4.529,12.039,12.039,0,0,0,.786-3.5c0-.537.035-.607.682-1.249a7.622,7.622,0,0,0,.809-.9c.116-.222.1-.222-.486-.023-.983.35-1.121.3-.636-.222A3.4,3.4,0,0,0,15.607.284c0-.035-.173.023-.37.128a6.45,6.45,0,0,1-1.017.4l-.624.2L13.029.623a4.706,4.706,0,0,0-.983-.514,3.95,3.95,0,0,0-2.023.047A3.342,3.342,0,0,0,7.769,3.517Z" transform="translate(0 0)"/></clipPath></defs><g transform="translate(1 2)"><path class="a" d="M7.769,3.517l.035.572-.578-.07a9.4,9.4,0,0,1-5.5-2.708L.96.553l-.2.56A3.368,3.368,0,0,0,1.48,4.568c.462.49.358.56-.439.268A1.363,1.363,0,0,0,.5,4.708,4.182,4.182,0,0,0,.913,6.272,3.733,3.733,0,0,0,2.5,7.766l.566.268-.671.012c-.647,0-.671.012-.6.257a3.5,3.5,0,0,0,2.162,1.914l.717.245-.624.373a6.509,6.509,0,0,1-3.1.864A3.423,3.423,0,0,0,0,11.792a8.8,8.8,0,0,0,2.231,1.027,9.765,9.765,0,0,0,7.584-.864,10.149,10.149,0,0,0,3.85-4.529,12.039,12.039,0,0,0,.786-3.5c0-.537.035-.607.682-1.249a7.622,7.622,0,0,0,.809-.9c.116-.222.1-.222-.486-.023-.983.35-1.121.3-.636-.222A3.4,3.4,0,0,0,15.607.284c0-.035-.173.023-.37.128a6.45,6.45,0,0,1-1.017.4l-.624.2L13.029.623a4.706,4.706,0,0,0-.983-.514,3.95,3.95,0,0,0-2.023.047A3.342,3.342,0,0,0,7.769,3.517Z" transform="translate(0 0)"/><g class="b"><g transform="translate(-1 -2)"><rect class="c" width="18" height="18" rx="4"/></g></g></g></svg>