<?xml version="1.0" encoding="utf-8"?>
<!-- Generator: Adobe Illustrator 23.0.3, SVG Export Plug-In . SVG Version: 6.00 Build 0)  -->
<svg version="1.1" xmlns="http://www.w3.org/2000/svg" xmlns:xlink="http://www.w3.org/1999/xlink" x="0px" y="0px"
	 viewBox="0 0 500 500" style="enable-background:new 0 0 500 500;" xml:space="preserve">
<style type="text/css">
	.st0{display:none;}
	.st1{display:inline;fill:url(#SVGID_1_);}
	.st2{display:none;fill:#4498AB;}
	.st3{display:inline;fill:#FFFFFF;}
	.st4{display:inline;fill:#532C7B;}
	.st5{display:inline;fill:#350D65;}
	.st6{display:inline;opacity:0.1;fill:#FFFFFF;}
	.st7{display:inline;}
	.st8{fill:#B48CFF;}
	.st9{display:inline;fill:#172133;}
	.st10{font-family:'Montserrat-ExtraBold';}
	.st11{font-size:22.7399px;}
	.st12{opacity:0.2;fill:#FFFFFF;}
	.st13{display:inline;opacity:0.2;fill:#FFFFFF;}
	.st14{fill:#3FC9EE;}
	.st15{fill:#FEA501;}
	.st16{display:none;fill:#172133;}
	.st17{display:none;fill:#223047;}
	.st18{display:none;fill:#FEA501;}
	.st19{display:none;fill:#FFFFFF;}
	.st20{display:none;fill:none;stroke:#172133;stroke-width:3;stroke-linecap:round;stroke-linejoin:round;stroke-miterlimit:10;}
	.st21{display:none;fill:#260B42;}
	.st22{display:inline;fill:#260B42;}
	.st23{display:none;fill:#3FC9EE;}
	.st24{font-family:'Montserrat-Bold';}
	.st25{font-size:12px;}
	.st26{font-family:'Bungee-Regular';}
	.st27{font-size:30.2866px;}
	.st28{fill:#FF8154;}
	.st29{fill:#FF946E;}
	.st30{fill:#FFA17F;}
	.st31{fill:#FFB094;}
	.st32{display:inline;fill:#FCB237;}
	.st33{fill:#214B87;}
</style>
<g id="BACKGROUND" class="st0">
	<linearGradient id="SVGID_1_" gradientUnits="userSpaceOnUse" x1="289.1988" y1="7.9472" x2="209.1989" y2="501.947">
		<stop  offset="0.1108" style="stop-color:#1D99B3"/>
		<stop  offset="0.8568" style="stop-color:#5BB2C5"/>
	</linearGradient>
	<rect class="st1" width="500" height="500"/>
</g>
<g id="OBJECTS">
	<path class="st2" d="M445.7,405c0-3.6-87.6-6.5-195.7-6.5S54.3,401.4,54.3,405c0,3.6,87.6,6.5,195.7,6.5S445.7,408.6,445.7,405z"/>
	<g class="st0">
		<path class="st3" d="M340.9,105.6v281.6c0,9.8-8,17.8-17.8,17.8H176.9c-9.8,0-17.8-8-17.8-17.8V105.6c0-9.8,8-17.8,17.8-17.8
			h146.3C332.9,87.8,340.9,95.8,340.9,105.6z"/>
		<path class="st4" d="M182,94.7h136c4.3,0,8.1,1.7,11,4.3c3.1,2.9,5.1,7.1,5.1,11.7v237.2c0,6.3-3.6,11.8-9,14.4
			c-2.1,1.1-4.6,1.7-7.1,1.7H182c-8.9,0-16.1-7.2-16.1-16.1V110.7C165.9,101.9,173.1,94.7,182,94.7z"/>
		<path class="st3" d="M291.7,87.8l-2.1,6.8c-2.8,8.9-11.1,15-20.5,15h-38.2c-9.4,0-17.7-6.1-20.5-15l-2.1-6.8H291.7z"/>
		
			<ellipse transform="matrix(3.589268e-02 -0.9994 0.9994 3.589268e-02 -143.1951 620.5089)" class="st5" cx="250" cy="384.5" rx="11.8" ry="11.8"/>
		<path class="st5" d="M269.8,100.8L269.8,100.8c0,2.3-1.8,4.1-4.1,4.1h-31.4c-2.3,0-4.1-1.8-4.1-4.1l0,0c0-2.3,1.8-4.1,4.1-4.1
			h31.4C268,96.7,269.8,98.6,269.8,100.8z"/>
		<path class="st6" d="M170,109.9v240.6c0,4,3.3,7.3,7.3,7.3l0,0V102.7l0,0C173.3,102.7,170,105.9,170,109.9z"/>
		<path class="st6" d="M330,350.5V109.9c0-4-3.3-7.3-7.3-7.3l0,0v255.2l0,0C326.7,357.8,330,354.6,330,350.5z"/>
	</g>
	<g class="st0">
		<g class="st7">
			<path class="st8" d="M354.2,171.8H283c-2.8,0-5.1,2.3-5.1,5.1v27.8c0,2.8,2.3,5.1,5.1,5.1l0,0v10l9.4-10h61.8
				c2.8,0,5.1-2.3,5.1-5.1v-27.8C359.3,174.1,357,171.8,354.2,171.8z"/>
		</g>
		<text transform="matrix(1 0 0 1 299.0937 197.6178)" class="st9 st10 st11">&lt; / &gt;</text>
	</g>
	<path class="st12" d="M401.1,136.6c-1.9,0-3.7,0.5-5.4,1.5c-6.5-12.4-14.7-19.9-23.8-19.9c-8.1,0-15.7,6.1-21.8,16.3
		c-4-2.3-8.5-3.5-13.1-3.5c-7.9,0-15.1,3.6-20.8,9.5c-2.4-2.5-5.3-4-8.5-4c-3.9,0-7.5,2.3-10.1,5.9h16.8h3.3h28.2h13.4H391h6.8h13.3
		C408.6,138.8,405,136.6,401.1,136.6z"/>
	<g class="st0">
		<path class="st13" d="M199.6,69.1c-4.9,0-8.9,3-8.9,6.7h17.8C208.5,72.1,204.5,69.1,199.6,69.1z"/>
		<path class="st13" d="M171.5,67.9c-2.4,0-4.6,0.6-6.4,1.6c-3-4.3-8.9-7.2-15.8-7.2c-9.8,0-17.8,6-17.8,13.5h29.5h6.1H182
			C182,71.5,177.3,67.9,171.5,67.9z"/>
	</g>
	<g class="st0">
		<path class="st9" d="M250,278.7h75.4c3.9,0,7.1-3.2,7.1-7.1v-20.7c0-3.9-3.2-7.1-7.1-7.1H250c-3.9,0-7.1,3.2-7.1,7.1v20.7
			C242.9,275.5,246.1,278.7,250,278.7z"/>
		<g class="st7">
			<rect x="252.5" y="250.2" class="st14" width="11.3" height="4.1"/>
			<rect x="270" y="250.2" class="st15" width="20.3" height="4.1"/>
			<rect x="260.2" y="258.9" class="st14" width="9.8" height="4.1"/>
			<rect x="276.2" y="258.9" class="st15" width="43.7" height="4.1"/>
			<rect x="260.2" y="267.7" class="st14" width="9.8" height="4.1"/>
			<rect x="276.2" y="267.7" class="st15" width="43.7" height="4.1"/>
		</g>
	</g>
	<rect x="204.1" class="st16" width="8.9" height="118.2"/>
	<polygon class="st17" points="225.1,142.3 191.4,142.3 194.6,105.4 221.9,105.4 	"/>
	<path class="st16" d="M189.8,137.5h37.6c1.3,0,2.4,1.1,2.4,2.4l0,0c0,1.3-1.1,2.4-2.4,2.4h-37.6c-1.3,0-2.4-1.1-2.4-2.4l0,0
		C187.4,138.6,188.5,137.5,189.8,137.5z"/>
	<path class="st17" d="M191.4,142.3l-16.7,20.6l10.3,23.3c0,0,10.4-0.1-2.5-24.1l16.4-19.8H191.4z"/>
	<path class="st17" d="M225.2,142.3l16.7,20.6l-10.3,23.3c0,0-10.4-0.1,2.5-24.1l-16.4-19.8H225.2z"/>
	<path class="st18" d="M220.1,205.6h-23.6c-4.2,0-7.6-3.4-7.6-7.6v-23.6c0-4.2,3.4-7.6,7.6-7.6h23.6c4.2,0,7.6,3.4,7.6,7.6V198
		C227.7,202.2,224.3,205.6,220.1,205.6z"/>
	<path class="st19" d="M222.5,189.1v-5.8l-3.5-0.6c-0.2-0.6-0.4-1.1-0.7-1.6l2.1-2.9l-4.1-4.1l-2.9,2.1c-0.5-0.3-1.1-0.5-1.6-0.7
		l-0.6-3.5h-2.9h-2.9l-0.6,3.5c-0.6,0.2-1.1,0.4-1.6,0.7l-2.9-2.1l-4.1,4.1l2.1,2.9c-0.3,0.5-0.5,1.1-0.7,1.6l-3.5,0.6v5.8l3.5,0.6
		c0.2,0.6,0.4,1.1,0.7,1.6l-2.1,2.9l4.1,4.1l2.9-2.1c0.5,0.3,1.1,0.5,1.6,0.7l0.6,3.5h2.9h2.9l0.6-3.5c0.6-0.2,1.1-0.4,1.6-0.7
		l2.9,2.1l4.1-4.1l-2.1-2.9c0.3-0.5,0.5-1.1,0.7-1.6L222.5,189.1z M208.2,194.8c-4.7,0-8.6-3.8-8.6-8.6s3.8-8.6,8.6-8.6
		s8.6,3.8,8.6,8.6S213,194.8,208.2,194.8z"/>
	<polyline class="st20" points="121.9,349.5 206,236.9 121.9,300.7 121.9,349.5 	"/>
	<polyline class="st20" points="121.9,300.7 151.2,310.3 151.2,278.5 174.9,278.5 174.9,260.5 188.4,260.5 	"/>
	<rect x="76.1" y="282.6" class="st17" width="4" height="122.4"/>
	<polygon class="st17" points="123,327.3 120.1,330.2 76.7,286.4 79.6,283.6 	"/>
	<rect x="119.9" y="282.6" class="st17" width="4" height="122.4"/>
	<polygon class="st17" points="76.7,327.3 79.6,330.2 123,286.4 120.1,283.6 	"/>
	
		<rect x="98" y="309.5" transform="matrix(6.123234e-17 -1 1 6.123234e-17 -231.4696 431.425)" class="st17" width="4" height="43.8"/>
	<polygon class="st17" points="123,376.3 120.1,379.1 76.7,335.4 79.6,332.5 	"/>
	<polygon class="st17" points="76.7,376.3 79.6,379.1 123,335.4 120.1,332.5 	"/>
	
		<rect x="98" y="358" transform="matrix(6.123234e-17 -1 1 6.123234e-17 -279.9266 479.8821)" class="st17" width="4" height="43.8"/>
	
		<rect x="97.8" y="258.5" transform="matrix(-1.836970e-16 1 -1 -1.836970e-16 384.2007 184.5014)" class="st17" width="4" height="51.6"/>
	<rect x="74.3" y="276.6" class="st21" width="51.4" height="1.4"/>
	<g class="st0">
		<rect x="121.2" y="276.6" class="st22" width="1.4" height="5.8"/>
		<rect x="77.4" y="276.6" class="st22" width="1.4" height="5.8"/>
		<rect x="92" y="276.6" class="st22" width="1.4" height="5.8"/>
		<rect x="106.6" y="276.6" class="st22" width="1.4" height="5.8"/>
	</g>
	<line class="st20" x1="206" y1="236.9" x2="206" y2="300.9"/>
	<path class="st23" d="M180.8,319.7h95.4c3.9,0,7.1-3.2,7.1-7.1v-4.7c0-3.9-3.2-7.1-7.1-7.1h-95.4c-3.9,0-7.1,3.2-7.1,7.1v4.7
		C173.7,316.6,176.9,319.7,180.8,319.7z"/>
	<rect x="228.5" y="307.9" class="st19" width="44.6" height="4.1"/>
	<text transform="matrix(1 0 0 1 183.8616 313.5968)" class="st19 st24 st25">http://</text>
	<path class="st18" d="M209.5,237.8c0-2-1.6-3.6-3.6-3.6c-2,0-3.6,1.6-3.6,3.6c0,2,1.6,3.6,3.6,3.6
		C207.9,241.3,209.5,239.7,209.5,237.8z"/>
	<g class="st0">
		<path class="st13" d="M188.6,218.3c-4.9,0-8.9,3-8.9,6.7h17.8C197.5,221.3,193.5,218.3,188.6,218.3z"/>
		<path class="st13" d="M160.6,217.1c-2.4,0-4.6,0.6-6.4,1.6c-3-4.3-8.9-7.2-15.8-7.2c-9.8,0-17.8,6-17.8,13.5h29.5h6.1H171
			C171,220.7,166.4,217.1,160.6,217.1z"/>
	</g>
	<text transform="matrix(1 0 0 1 125.2211 452.6299)" class="st19 st26 st27">APP DEVELOPMENT</text>
	<g class="st0">
		<g class="st7">
			<path class="st28" d="M362,254.3l-11.8,6c-4.5,2.3-5.6,8.2-2.3,11.9l17.7,20.3c0,0,14.4-14.3-1.5-21.7l8.5-4.6L362,254.3z"/>
			<path class="st29" d="M363,244.9l-12.4,4.5c-4.7,1.7-6.6,7.4-3.8,11.6l15.1,22.2c0,0,16-12.5,1.1-21.7l9-3.5L363,244.9z"/>
			<path class="st30" d="M428.4,277.2h-5.7c-7.2,0-14.2-2.7-19.5-7.6l-44.8-41.3c-2.3-2.1-5.2-3.2-8.3-3.2h-17.7c-2,0-4,0.5-5.8,1.5
				l-15,7.7c-2.9,1.5-3.1,5.5-0.4,7.4c3.9,2.6,10.6,3.9,20.6-4.6l17.1,3c0,0,18,13.6,17.8,21.2c-0.2,7.6-4.6,24.9-16.1,22.3
				c-9.8-2.2-20.3-6.7-26.2-3c-3.4,2.1-3.2,7.2,0.3,9.1c5,2.8,14.4,6.9,27.7,7.8c9.2,0.6,44.6,7,76,7V277.2z"/>
			<path class="st31" d="M311.6,233.8c0,0,0,9.6,14.1,0l-2.6-5.9L311.6,233.8z"/>
			<path class="st31" d="M325.6,290.7c0,0-1.2-9.5,13.9-1.7l-1.8,6.2L325.6,290.7z"/>
		</g>
		<rect x="418.5" y="264.7" class="st3" width="25" height="48.4"/>
		<rect x="435.4" y="256.8" class="st22" width="64.6" height="64.2"/>
		<path class="st32" d="M462.4,271.6c0-2.2-1.8-3.9-3.9-3.9c-2.2,0-3.9,1.8-3.9,3.9c0,2.2,1.8,3.9,3.9,3.9
			C460.6,275.6,462.4,273.8,462.4,271.6z"/>
		<path class="st32" d="M480.5,271.6c0-2.2-1.8-3.9-3.9-3.9c-2.2,0-3.9,1.8-3.9,3.9c0,2.2,1.8,3.9,3.9,3.9
			C478.7,275.6,480.5,273.8,480.5,271.6z"/>
	</g>
</g>
<g id="DESIGNED_BY_FREEPIK" class="st0">
	<g id="XMLID_1_" class="st7">
		<g id="XMLID_2_">
			<g>
				<g id="XMLID_459_">
					<path id="XMLID_480_" class="st33" d="M181.1,477.7c-0.2,0-0.4,0.1-0.6,0.3c-0.1,0.2-0.2,0.4-0.2,0.8v2.4
						c-0.3-0.3-0.6-0.6-0.9-0.7c-0.3-0.2-0.7-0.2-1.2-0.2c-0.8,0-1.5,0.3-2,0.8c-0.5,0.6-0.7,1.4-0.7,2.4c0,0.5,0.1,0.9,0.2,1.3
						c0.1,0.4,0.3,0.8,0.5,1.1c0.2,0.3,0.5,0.5,0.9,0.7c0.3,0.2,0.7,0.2,1.1,0.2c0.3,0,0.6,0,0.8-0.1c0.2-0.1,0.5-0.2,0.7-0.4
						c0.2-0.2,0.4-0.4,0.6-0.6v0.2c0,0.3,0.1,0.5,0.2,0.7c0.1,0.2,0.3,0.2,0.5,0.2c0.2,0,0.4-0.1,0.6-0.2c0.1-0.2,0.2-0.4,0.2-0.7
						v-7.1c0-0.3-0.1-0.5-0.2-0.7C181.5,477.7,181.3,477.7,181.1,477.7z M180,484.5c-0.1,0.3-0.3,0.5-0.6,0.7
						c-0.2,0.1-0.5,0.2-0.8,0.2c-0.3,0-0.5-0.1-0.8-0.2c-0.2-0.2-0.4-0.4-0.6-0.7c-0.1-0.3-0.2-0.7-0.2-1.1c0-0.4,0.1-0.8,0.2-1.1
						c0.1-0.3,0.3-0.6,0.5-0.7c0.2-0.2,0.5-0.3,0.8-0.3c0.3,0,0.5,0.1,0.8,0.2c0.2,0.2,0.4,0.4,0.6,0.7c0.1,0.3,0.2,0.7,0.2,1.1
						C180.2,483.8,180.1,484.2,180,484.5z"/>
					<path id="XMLID_477_" class="st33" d="M188.4,483.6c0.2-0.1,0.3-0.4,0.3-0.8c0-0.4-0.1-0.9-0.3-1.3c-0.2-0.4-0.6-0.8-1-1
						c-0.5-0.3-1-0.4-1.6-0.4c-0.5,0-0.9,0.1-1.3,0.2c-0.4,0.2-0.7,0.4-1,0.7c-0.3,0.3-0.5,0.6-0.6,1.1c-0.1,0.4-0.2,0.9-0.2,1.3
						c0,1,0.3,1.8,0.9,2.4c0.6,0.6,1.4,0.9,2.4,0.9c0.5,0,0.9-0.1,1.2-0.2c0.4-0.1,0.6-0.3,0.9-0.4c0.2-0.2,0.4-0.4,0.5-0.6
						c0.1-0.2,0.2-0.4,0.2-0.5c0-0.2-0.1-0.3-0.2-0.4c-0.1-0.1-0.2-0.1-0.4-0.1c-0.2,0-0.3,0-0.4,0.1c-0.2,0.2-0.4,0.3-0.5,0.5
						c-0.1,0.1-0.3,0.2-0.4,0.3c-0.2,0.1-0.3,0.2-0.5,0.2c-0.2,0-0.3,0.1-0.5,0.1c-0.3,0-0.6-0.1-0.8-0.2c-0.2-0.1-0.4-0.4-0.6-0.6
						c-0.1-0.3-0.2-0.6-0.2-1h3.2C187.9,483.8,188.2,483.7,188.4,483.6z M184.3,482.8c0.1-0.5,0.2-1,0.5-1.2c0.3-0.3,0.6-0.4,1-0.4
						c0.4,0,0.8,0.1,1,0.4c0.3,0.3,0.4,0.7,0.4,1.2H184.3z"/>
					<path id="XMLID_476_" class="st33" d="M193.9,483.1c-0.3-0.2-0.7-0.3-1.2-0.4c-0.4-0.1-0.8-0.2-1-0.3c-0.2-0.1-0.4-0.2-0.6-0.3
						c-0.1-0.1-0.2-0.2-0.2-0.4c0-0.2,0.1-0.3,0.3-0.5c0.2-0.1,0.4-0.2,0.7-0.2c0.3,0,0.5,0,0.7,0.1c0.2,0.1,0.3,0.2,0.4,0.4
						c0.2,0.2,0.3,0.3,0.4,0.4c0.1,0.1,0.3,0.1,0.4,0.1c0.2,0,0.4-0.1,0.5-0.2c0.1-0.1,0.2-0.3,0.2-0.5c0-0.2-0.1-0.3-0.2-0.5
						c-0.1-0.2-0.3-0.3-0.5-0.5c-0.2-0.1-0.5-0.3-0.8-0.4c-0.3-0.1-0.7-0.1-1.1-0.1c-0.5,0-1,0.1-1.4,0.3c-0.4,0.2-0.7,0.4-0.9,0.7
						c-0.2,0.3-0.3,0.6-0.3,0.9c0,0.4,0.1,0.7,0.3,0.9c0.2,0.2,0.5,0.5,0.8,0.6c0.4,0.2,0.8,0.3,1.4,0.4c0.5,0.1,0.8,0.2,1.1,0.4
						c0.2,0.1,0.3,0.3,0.3,0.6c0,0.2-0.1,0.4-0.3,0.5c-0.2,0.1-0.5,0.2-0.8,0.2c-0.4,0-0.7-0.1-0.9-0.2c-0.2-0.1-0.4-0.4-0.6-0.6
						c-0.1-0.1-0.2-0.3-0.3-0.3c-0.1-0.1-0.2-0.1-0.4-0.1c-0.2,0-0.4,0.1-0.5,0.2c-0.1,0.1-0.2,0.3-0.2,0.5c0,0.3,0.1,0.5,0.3,0.8
						c0.2,0.3,0.5,0.5,0.9,0.7c0.4,0.2,0.9,0.3,1.5,0.3c0.6,0,1.1-0.1,1.6-0.2c0.4-0.2,0.7-0.4,1-0.7c0.2-0.3,0.3-0.7,0.3-1.1
						c0-0.3-0.1-0.6-0.2-0.8C194.4,483.5,194.2,483.3,193.9,483.1z"/>
					<path id="XMLID_475_" class="st33" d="M196.5,480.1c-0.2,0-0.4,0.1-0.6,0.2c-0.1,0.2-0.2,0.4-0.2,0.7v4.6
						c0,0.3,0.1,0.6,0.2,0.7c0.1,0.2,0.3,0.3,0.6,0.3c0.2,0,0.4-0.1,0.6-0.2c0.2-0.2,0.2-0.4,0.2-0.7V481c0-0.3-0.1-0.5-0.2-0.7
						C196.9,480.1,196.7,480.1,196.5,480.1z"/>
					<path id="XMLID_474_" class="st33" d="M196.5,477.7c-0.2,0-0.4,0.1-0.6,0.2c-0.2,0.1-0.2,0.3-0.2,0.6c0,0.3,0.1,0.4,0.2,0.6
						c0.2,0.1,0.4,0.2,0.6,0.2c0.2,0,0.4-0.1,0.6-0.2c0.2-0.1,0.2-0.3,0.2-0.6c0-0.3-0.1-0.5-0.2-0.6
						C196.9,477.8,196.7,477.7,196.5,477.7z"/>
					<path id="XMLID_471_" class="st33" d="M203.6,480.1c-0.2,0-0.4,0.1-0.5,0.2c-0.1,0.2-0.2,0.4-0.2,0.7v0.2
						c-0.3-0.4-0.6-0.7-0.9-0.8c-0.3-0.2-0.7-0.3-1.2-0.3c-0.4,0-0.7,0.1-1.1,0.2c-0.3,0.1-0.6,0.3-0.8,0.6c-0.2,0.3-0.4,0.6-0.6,1
						c-0.1,0.4-0.2,0.8-0.2,1.3c0,0.7,0.1,1.2,0.3,1.7c0.2,0.5,0.5,0.9,0.9,1.2c0.4,0.3,0.9,0.4,1.4,0.4c0.5,0,0.8-0.1,1.2-0.3
						c0.3-0.2,0.6-0.4,0.9-0.8c0,0.5,0,0.9,0,1.2c0,0.2-0.1,0.5-0.2,0.7c-0.1,0.2-0.3,0.4-0.5,0.5c-0.2,0.1-0.6,0.2-1,0.2
						c-0.2,0-0.4,0-0.5-0.1c-0.2,0-0.3-0.1-0.4-0.2c-0.1-0.1-0.2-0.2-0.3-0.3c-0.1-0.1-0.2-0.2-0.3-0.3c-0.2-0.2-0.4-0.3-0.6-0.3
						c-0.2,0-0.4,0.1-0.5,0.2c-0.1,0.1-0.2,0.3-0.2,0.5c0,0.3,0.1,0.5,0.4,0.8c0.2,0.2,0.6,0.4,1,0.6c0.4,0.2,0.9,0.2,1.5,0.2
						c0.6,0,1.1-0.1,1.5-0.2c0.4-0.1,0.7-0.3,1-0.6c0.3-0.3,0.4-0.6,0.6-1c0.1-0.4,0.2-0.9,0.2-1.4v-4.7c0-0.4-0.1-0.7-0.2-0.9
						C204.1,480.2,203.9,480.1,203.6,480.1z M202.6,484.4c-0.2,0.3-0.3,0.5-0.6,0.7c-0.2,0.1-0.5,0.2-0.8,0.2
						c-0.5,0-0.8-0.2-1.1-0.5c-0.3-0.3-0.4-0.8-0.4-1.5c0-0.6,0.1-1.1,0.4-1.5c0.3-0.4,0.6-0.5,1.1-0.5c0.5,0,0.9,0.2,1.1,0.6
						c0.3,0.4,0.4,0.9,0.4,1.5C202.8,483.8,202.7,484.1,202.6,484.4z"/>
					<path id="XMLID_470_" class="st33" d="M211,481.1c-0.2-0.3-0.4-0.6-0.8-0.8c-0.3-0.2-0.7-0.3-1.1-0.3c-0.4,0-0.8,0.1-1.2,0.3
						c-0.3,0.2-0.7,0.5-0.9,0.8V481c0-0.2,0-0.4-0.1-0.5c-0.1-0.1-0.2-0.2-0.3-0.3c-0.1-0.1-0.2-0.1-0.4-0.1c-0.2,0-0.4,0.1-0.6,0.2
						c-0.1,0.2-0.2,0.4-0.2,0.7v4.7c0,0.3,0.1,0.6,0.2,0.7c0.2,0.2,0.3,0.3,0.6,0.3c0.2,0,0.4-0.1,0.6-0.2c0.2-0.2,0.2-0.4,0.2-0.7
						v-2c0-0.7,0-1.1,0.1-1.4c0.1-0.3,0.3-0.5,0.5-0.7c0.2-0.2,0.5-0.3,0.8-0.3c0.4,0,0.7,0.1,0.9,0.4c0.1,0.3,0.2,0.7,0.2,1.2v2.7
						c0,0.3,0.1,0.6,0.2,0.7c0.2,0.2,0.3,0.3,0.6,0.3c0.2,0,0.4-0.1,0.6-0.2c0.1-0.2,0.2-0.4,0.2-0.7v-3c0-0.4,0-0.6,0-0.9
						C211.1,481.5,211.1,481.3,211,481.1z"/>
					<path id="XMLID_467_" class="st33" d="M217.8,483.6c0.2-0.1,0.4-0.4,0.4-0.8c0-0.4-0.1-0.9-0.3-1.3c-0.2-0.4-0.6-0.8-1-1
						c-0.5-0.3-1-0.4-1.6-0.4c-0.5,0-0.9,0.1-1.3,0.2c-0.4,0.2-0.7,0.4-1,0.7c-0.3,0.3-0.5,0.6-0.6,1.1c-0.1,0.4-0.2,0.9-0.2,1.3
						c0,1,0.3,1.8,0.9,2.4c0.6,0.6,1.4,0.9,2.4,0.9c0.5,0,0.9-0.1,1.2-0.2c0.4-0.1,0.6-0.3,0.9-0.4c0.2-0.2,0.4-0.4,0.5-0.6
						c0.1-0.2,0.2-0.4,0.2-0.5c0-0.2-0.1-0.3-0.2-0.4c-0.1-0.1-0.2-0.1-0.4-0.1c-0.2,0-0.3,0-0.4,0.1c-0.2,0.2-0.4,0.3-0.5,0.5
						c-0.1,0.1-0.3,0.2-0.4,0.3c-0.2,0.1-0.3,0.2-0.5,0.2c-0.2,0-0.3,0.1-0.5,0.1c-0.3,0-0.6-0.1-0.8-0.2c-0.2-0.1-0.4-0.4-0.6-0.6
						c-0.1-0.3-0.2-0.6-0.2-1h3.2C217.3,483.8,217.6,483.7,217.8,483.6z M213.7,482.8c0.1-0.5,0.2-1,0.5-1.2c0.3-0.3,0.6-0.4,1-0.4
						c0.4,0,0.8,0.1,1,0.4c0.3,0.3,0.4,0.7,0.4,1.2H213.7z"/>
					<path id="XMLID_464_" class="st33" d="M224.2,477.7c-0.2,0-0.4,0.1-0.6,0.3c-0.1,0.2-0.2,0.4-0.2,0.8v2.4
						c-0.3-0.3-0.6-0.6-0.9-0.7c-0.3-0.2-0.7-0.2-1.2-0.2c-0.8,0-1.5,0.3-2,0.8c-0.5,0.6-0.7,1.4-0.7,2.4c0,0.5,0.1,0.9,0.2,1.3
						c0.1,0.4,0.3,0.8,0.5,1.1c0.2,0.3,0.5,0.5,0.9,0.7c0.3,0.2,0.7,0.2,1.1,0.2c0.3,0,0.6,0,0.8-0.1c0.2-0.1,0.5-0.2,0.7-0.4
						c0.2-0.2,0.4-0.4,0.6-0.6v0.2c0,0.3,0.1,0.5,0.2,0.7c0.1,0.2,0.3,0.2,0.5,0.2c0.2,0,0.4-0.1,0.6-0.2c0.1-0.2,0.2-0.4,0.2-0.7
						v-7.1c0-0.3-0.1-0.5-0.2-0.7C224.6,477.7,224.4,477.7,224.2,477.7z M223.1,484.5c-0.1,0.3-0.3,0.5-0.6,0.7
						c-0.2,0.1-0.5,0.2-0.8,0.2c-0.3,0-0.5-0.1-0.8-0.2c-0.2-0.2-0.4-0.4-0.6-0.7c-0.1-0.3-0.2-0.7-0.2-1.1c0-0.4,0.1-0.8,0.2-1.1
						c0.1-0.3,0.3-0.6,0.5-0.7c0.2-0.2,0.5-0.3,0.8-0.3c0.3,0,0.5,0.1,0.8,0.2c0.2,0.2,0.4,0.4,0.6,0.7c0.1,0.3,0.2,0.7,0.2,1.1
						C223.3,483.8,223.3,484.2,223.1,484.5z"/>
					<path id="XMLID_461_" class="st33" d="M233.6,480.5c-0.4-0.3-0.9-0.4-1.4-0.4c-0.5,0-0.9,0.1-1.2,0.3c-0.3,0.2-0.6,0.4-0.9,0.7
						v-2.5c0-0.3-0.1-0.5-0.2-0.7c-0.1-0.2-0.3-0.2-0.6-0.2c-0.2,0-0.4,0.1-0.6,0.3c-0.1,0.2-0.2,0.4-0.2,0.7v7.1
						c0,0.3,0.1,0.5,0.2,0.7c0.1,0.2,0.3,0.2,0.5,0.2c0.2,0,0.4-0.1,0.6-0.2c0.1-0.2,0.2-0.4,0.2-0.7v-0.2c0.2,0.2,0.3,0.4,0.4,0.5
						c0.1,0.1,0.2,0.2,0.4,0.3c0.2,0.1,0.3,0.2,0.6,0.2c0.2,0.1,0.5,0.1,0.7,0.1c0.4,0,0.8-0.1,1.1-0.2c0.3-0.2,0.6-0.4,0.9-0.7
						c0.2-0.3,0.4-0.7,0.5-1.1c0.1-0.4,0.2-0.9,0.2-1.4c0-0.7-0.1-1.2-0.3-1.7C234.3,481.1,234,480.7,233.6,480.5z M232.8,484.9
						c-0.3,0.4-0.6,0.5-1.1,0.5c-0.5,0-0.9-0.2-1.2-0.5c-0.3-0.3-0.4-0.8-0.4-1.5c0-0.4,0.1-0.8,0.2-1.1c0.1-0.3,0.3-0.6,0.6-0.7
						c0.2-0.2,0.5-0.3,0.8-0.3c0.3,0,0.6,0.1,0.8,0.3c0.2,0.2,0.4,0.4,0.5,0.7c0.1,0.3,0.2,0.7,0.2,1.1
						C233.2,484,233.1,484.5,232.8,484.9z"/>
					<path id="XMLID_460_" class="st33" d="M240.5,480.2c-0.1-0.1-0.2-0.1-0.4-0.1c-0.2,0-0.3,0-0.4,0.1c-0.1,0.1-0.2,0.2-0.3,0.3
						c-0.1,0.2-0.2,0.4-0.3,0.7l-1.3,3.7l-1.4-4c-0.1-0.3-0.2-0.5-0.3-0.6c-0.1-0.1-0.3-0.2-0.5-0.2c-0.1,0-0.3,0-0.4,0.1
						c-0.1,0.1-0.2,0.2-0.3,0.3c-0.1,0.1-0.1,0.2-0.1,0.4c0,0.1,0.1,0.3,0.2,0.6l2,5l-0.1,0.4c-0.1,0.3-0.2,0.5-0.3,0.6
						c-0.1,0.1-0.2,0.2-0.3,0.3c-0.1,0.1-0.3,0.1-0.4,0.1c-0.1,0-0.2,0-0.3,0c-0.1,0-0.2,0-0.3,0c-0.2,0-0.4,0.1-0.5,0.2
						c-0.1,0.1-0.2,0.2-0.2,0.4c0,0.3,0.1,0.5,0.4,0.6c0.2,0.1,0.6,0.2,1.1,0.2c0.5,0,0.9-0.1,1.2-0.2c0.3-0.1,0.5-0.4,0.7-0.6
						c0.2-0.3,0.4-0.7,0.5-1.1l2.1-5.5c0.1-0.1,0.1-0.3,0.1-0.4c0-0.1,0.1-0.2,0.1-0.3c0-0.1,0-0.2-0.1-0.3
						C240.7,480.3,240.6,480.2,240.5,480.2z"/>
				</g>
				<g id="XMLID_438_">
					<path id="XMLID_458_" class="st33" d="M262.9,477.6c-0.5,0-1,0.1-1.3,0.2c-0.3,0.1-0.5,0.4-0.7,0.7c-0.1,0.3-0.2,0.7-0.2,1.2
						v0.5h-0.4c-0.5,0-0.8,0.2-0.8,0.6c0,0.2,0.1,0.3,0.2,0.4c0.1,0.1,0.3,0.2,0.6,0.2h0.4v4.3c0,0.3,0.1,0.6,0.2,0.7
						c0.2,0.2,0.3,0.3,0.6,0.3c0.2,0,0.4-0.1,0.6-0.3c0.2-0.2,0.2-0.4,0.2-0.7v-4.3h0.4c0.3,0,0.5,0,0.7-0.1
						c0.2-0.1,0.2-0.2,0.2-0.5c0-0.4-0.3-0.6-0.9-0.6h-0.4v-0.4c0-0.3,0-0.6,0.1-0.7c0.1-0.2,0.3-0.3,0.6-0.3c0.1,0,0.2,0,0.4,0
						c0.2,0,0.3,0,0.3,0c0.1,0,0.3-0.1,0.3-0.2c0.1-0.1,0.2-0.2,0.2-0.4C264.4,477.9,263.9,477.6,262.9,477.6z"/>
					<path id="XMLID_457_" class="st33" d="M268.1,480.3c-0.3-0.2-0.6-0.3-1-0.3c-0.3,0-0.6,0.1-0.8,0.3c-0.2,0.2-0.4,0.4-0.6,0.8
						c0-0.3-0.1-0.6-0.2-0.8c-0.1-0.2-0.3-0.3-0.6-0.3c-0.5,0-0.8,0.4-0.8,1.1v4.5c0,0.3,0.1,0.6,0.2,0.7c0.1,0.2,0.3,0.3,0.6,0.3
						c0.2,0,0.4-0.1,0.6-0.2c0.2-0.2,0.2-0.4,0.2-0.7v-1.4c0-0.5,0-0.9,0-1.2c0-0.3,0.1-0.6,0.2-0.9c0.1-0.2,0.2-0.4,0.4-0.6
						c0.1-0.1,0.3-0.2,0.6-0.2c0.2,0,0.4,0,0.6,0.1c0.2,0.1,0.4,0.1,0.4,0.1c0.2,0,0.3-0.1,0.4-0.2c0.1-0.1,0.2-0.3,0.2-0.5
						C268.6,480.7,268.4,480.5,268.1,480.3z"/>
					<path id="XMLID_454_" class="st33" d="M274.2,483.6c0.2-0.1,0.4-0.4,0.4-0.8c0-0.4-0.1-0.9-0.3-1.3c-0.2-0.4-0.6-0.8-1-1
						c-0.5-0.3-1-0.4-1.6-0.4c-0.5,0-0.9,0.1-1.3,0.2c-0.4,0.2-0.7,0.4-1,0.7c-0.3,0.3-0.5,0.6-0.6,1.1c-0.1,0.4-0.2,0.9-0.2,1.3
						c0,1,0.3,1.8,0.9,2.4c0.6,0.6,1.4,0.9,2.4,0.9c0.5,0,0.9-0.1,1.2-0.2c0.3-0.1,0.6-0.3,0.9-0.4c0.2-0.2,0.4-0.4,0.5-0.6
						c0.1-0.2,0.2-0.4,0.2-0.5c0-0.2,0-0.3-0.2-0.4c-0.1-0.1-0.2-0.1-0.4-0.1c-0.2,0-0.3,0-0.4,0.1c-0.2,0.2-0.4,0.3-0.5,0.4
						c-0.1,0.1-0.3,0.2-0.4,0.3c-0.2,0.1-0.3,0.2-0.5,0.2c-0.2,0-0.3,0.1-0.5,0.1c-0.3,0-0.6-0.1-0.8-0.2c-0.2-0.1-0.4-0.4-0.6-0.6
						c-0.1-0.3-0.2-0.6-0.2-1h3.2C273.6,483.8,273.9,483.7,274.2,483.6z M270,482.8c0.1-0.5,0.2-1,0.5-1.2c0.3-0.3,0.6-0.4,1-0.4
						c0.4,0,0.8,0.1,1,0.4c0.3,0.3,0.4,0.7,0.4,1.2H270z"/>
					<path id="XMLID_451_" class="st33" d="M279.9,480.4c-0.5-0.3-1-0.4-1.6-0.4c-0.5,0-0.9,0.1-1.3,0.2c-0.4,0.2-0.7,0.4-1,0.7
						c-0.3,0.3-0.5,0.6-0.6,1.1c-0.1,0.4-0.2,0.9-0.2,1.3c0,1,0.3,1.8,0.9,2.4c0.6,0.6,1.4,0.9,2.4,0.9c0.5,0,0.9-0.1,1.2-0.2
						c0.3-0.1,0.6-0.3,0.9-0.4c0.2-0.2,0.4-0.4,0.5-0.6c0.1-0.2,0.2-0.4,0.2-0.5c0-0.2,0-0.3-0.2-0.4c-0.1-0.1-0.2-0.1-0.4-0.1
						c-0.2,0-0.3,0-0.4,0.1c-0.2,0.2-0.4,0.3-0.5,0.4c-0.1,0.1-0.3,0.2-0.4,0.3c-0.2,0.1-0.3,0.2-0.5,0.2c-0.2,0-0.3,0.1-0.5,0.1
						c-0.3,0-0.6-0.1-0.8-0.2c-0.2-0.1-0.4-0.4-0.6-0.6c-0.1-0.3-0.2-0.6-0.2-1h3.2c0.4,0,0.8-0.1,1-0.2c0.2-0.1,0.4-0.4,0.4-0.8
						c0-0.4-0.1-0.9-0.3-1.3C280.7,481.1,280.4,480.7,279.9,480.4z M276.8,482.8c0.1-0.5,0.2-1,0.5-1.2c0.3-0.3,0.6-0.4,1-0.4
						c0.4,0,0.8,0.1,1,0.4c0.3,0.3,0.4,0.7,0.4,1.2H276.8z"/>
					<path id="XMLID_448_" class="st33" d="M286.9,480.5c-0.4-0.3-0.9-0.4-1.4-0.4c-0.4,0-0.8,0.1-1.1,0.3c-0.3,0.2-0.6,0.5-1,0.8
						V481c0-0.3-0.1-0.5-0.2-0.7c-0.1-0.2-0.3-0.2-0.6-0.2c-0.2,0-0.4,0.1-0.6,0.2c-0.1,0.2-0.2,0.4-0.2,0.7v7
						c0,0.4,0.1,0.6,0.1,0.8c0.1,0.2,0.3,0.3,0.6,0.3c0.5,0,0.8-0.4,0.8-1.1v-2.4c0.3,0.4,0.6,0.6,0.9,0.8c0.3,0.2,0.7,0.3,1.2,0.3
						c0.4,0,0.7-0.1,1.1-0.2c0.3-0.2,0.6-0.4,0.9-0.7c0.2-0.3,0.4-0.6,0.6-1c0.1-0.4,0.2-0.9,0.2-1.4c0-0.7-0.1-1.3-0.4-1.8
						C287.7,481.1,287.4,480.7,286.9,480.5z M286.5,484.5c-0.1,0.3-0.3,0.5-0.6,0.7c-0.2,0.2-0.5,0.2-0.7,0.2
						c-0.5,0-0.8-0.2-1.1-0.5c-0.3-0.4-0.5-0.9-0.5-1.5c0-0.7,0.2-1.2,0.5-1.6c0.3-0.3,0.7-0.5,1.1-0.5c0.3,0,0.5,0.1,0.8,0.2
						c0.2,0.2,0.4,0.4,0.5,0.7c0.1,0.3,0.2,0.7,0.2,1.1C286.7,483.8,286.6,484.1,286.5,484.5z"/>
					<path id="XMLID_447_" class="st33" d="M289.9,480.1c-0.2,0-0.4,0.1-0.6,0.2c-0.1,0.2-0.2,0.4-0.2,0.7v4.6
						c0,0.3,0.1,0.6,0.2,0.7c0.2,0.2,0.3,0.3,0.6,0.3c0.2,0,0.4-0.1,0.6-0.3c0.2-0.2,0.2-0.4,0.2-0.7V481c0-0.3-0.1-0.5-0.2-0.7
						C290.3,480.1,290.1,480.1,289.9,480.1z"/>
					<path id="XMLID_446_" class="st33" d="M289.9,477.7c-0.2,0-0.4,0.1-0.6,0.2c-0.2,0.2-0.2,0.3-0.2,0.6c0,0.3,0.1,0.4,0.2,0.6
						c0.2,0.1,0.4,0.2,0.6,0.2c0.2,0,0.4-0.1,0.6-0.2c0.2-0.1,0.2-0.3,0.2-0.6c0-0.3-0.1-0.5-0.2-0.6
						C290.3,477.8,290.1,477.7,289.9,477.7z"/>
					<path id="XMLID_445_" class="st33" d="M297.3,485.1l-1.7-2.6l0.9-0.8c0.4-0.4,0.7-0.7,0.7-1c0-0.2-0.1-0.4-0.2-0.5
						c-0.1-0.1-0.3-0.2-0.5-0.2c-0.2,0-0.3,0-0.4,0.1c-0.1,0.1-0.3,0.3-0.5,0.5l-1.8,1.9v-3.9c0-0.3-0.1-0.6-0.2-0.8
						c-0.1-0.2-0.3-0.3-0.6-0.3c-0.3,0-0.5,0.1-0.6,0.3c-0.1,0.2-0.2,0.5-0.2,0.8v6.9c0,0.3,0.1,0.6,0.2,0.7
						c0.1,0.2,0.3,0.3,0.6,0.3c0.2,0,0.4-0.1,0.6-0.3c0.2-0.2,0.2-0.4,0.2-0.7v-1.3l0.9-0.8l1.4,2.4c0.2,0.3,0.3,0.5,0.4,0.6
						c0.1,0.1,0.3,0.2,0.5,0.2c0.2,0,0.4-0.1,0.6-0.2c0.1-0.2,0.2-0.4,0.2-0.6c0-0.1,0-0.2-0.1-0.3
						C297.5,485.4,297.4,485.3,297.3,485.1z"/>
					<path id="XMLID_444_" class="st33" d="M299.5,484.9c-0.3,0-0.5,0.1-0.6,0.3c-0.2,0.2-0.3,0.4-0.3,0.6c0,0.3,0.1,0.5,0.3,0.7
						c0.2,0.2,0.4,0.2,0.6,0.2c0.2,0,0.4-0.1,0.6-0.2c0.2-0.2,0.3-0.4,0.3-0.7c0-0.2-0.1-0.5-0.3-0.6
						C299.9,484.9,299.7,484.9,299.5,484.9z"/>
					<path id="XMLID_443_" class="st33" d="M306.8,483.9c-0.2,0-0.3,0.1-0.4,0.2c-0.1,0.1-0.2,0.2-0.3,0.4c-0.2,0.3-0.4,0.5-0.6,0.7
						c-0.2,0.2-0.5,0.2-0.8,0.2c-0.2,0-0.5,0-0.7-0.1c-0.2-0.1-0.4-0.2-0.5-0.4c-0.1-0.2-0.3-0.4-0.3-0.7c-0.1-0.3-0.1-0.5-0.1-0.8
						c0-0.6,0.1-1.2,0.4-1.5c0.3-0.4,0.7-0.6,1.2-0.6c0.3,0,0.6,0.1,0.8,0.2c0.2,0.1,0.4,0.4,0.6,0.7c0.1,0.2,0.2,0.3,0.3,0.3
						c0.1,0.1,0.2,0.1,0.3,0.1c0.2,0,0.4-0.1,0.5-0.2c0.1-0.1,0.2-0.3,0.2-0.5c0-0.2-0.1-0.4-0.2-0.6c-0.1-0.2-0.3-0.4-0.6-0.6
						c-0.2-0.2-0.5-0.4-0.9-0.5c-0.4-0.1-0.7-0.2-1.2-0.2c-0.7,0-1.3,0.1-1.7,0.4c-0.5,0.3-0.9,0.7-1.1,1.2
						c-0.3,0.5-0.4,1.1-0.4,1.8c0,1-2.5,0.9-1.9,1.4c0.6,0.6,4.1,1.8,5.1,1.8c0.5,0,0.9-0.1,1.3-0.2c0.4-0.1,0.7-0.3,0.9-0.5
						c0.2-0.2,0.4-0.4,0.6-0.7c0.1-0.2,0.2-0.4,0.2-0.6c0-0.2-0.1-0.3-0.2-0.5C307.2,484,307,483.9,306.8,483.9z"/>
					<path id="XMLID_440_" class="st33" d="M313.7,481c-0.3-0.3-0.6-0.5-1-0.7c-0.4-0.2-0.8-0.2-1.3-0.2c-0.5,0-0.9,0.1-1.3,0.2
						c-0.4,0.2-0.7,0.4-1,0.7c-0.3,0.3-0.5,0.6-0.6,1c-0.1,0.4-0.2,0.9-0.2,1.3c0,0.5,0.1,0.9,0.2,1.3c0.2,0.4,0.4,0.8,0.7,1
						c0.3,0.3,0.6,0.5,1,0.7c0.4,0.2,0.8,0.2,1.3,0.2c0.5,0,0.9-0.1,1.3-0.2c0.4-0.2,0.7-0.4,1-0.7c0.3-0.3,0.5-0.6,0.7-1
						c0.1-0.4,0.2-0.9,0.2-1.3c0-0.5-0.1-0.9-0.2-1.3C314.2,481.6,313.9,481.3,313.7,481z M312.5,484.9c-0.3,0.4-0.7,0.6-1.2,0.6
						c-0.3,0-0.6-0.1-0.8-0.3c-0.2-0.2-0.4-0.4-0.6-0.7c-0.1-0.3-0.2-0.7-0.2-1.1c0-0.4,0.1-0.8,0.2-1.1c0.1-0.3,0.3-0.6,0.6-0.7
						c0.2-0.2,0.5-0.2,0.8-0.2c0.5,0,0.9,0.2,1.2,0.6c0.3,0.4,0.4,0.9,0.4,1.5C312.9,484,312.8,484.5,312.5,484.9z"/>
					<path id="XMLID_439_" class="st33" d="M323.6,480.3c-0.3-0.2-0.7-0.3-1.1-0.3c-0.4,0-0.7,0.1-1,0.2c-0.3,0.2-0.6,0.4-0.9,0.7
						c-0.2-0.3-0.4-0.6-0.7-0.7c-0.3-0.2-0.6-0.2-1-0.2c-0.4,0-0.7,0.1-1.1,0.2c-0.3,0.2-0.6,0.4-0.9,0.7v-0.2
						c0-0.3-0.1-0.5-0.2-0.6c-0.2-0.1-0.3-0.2-0.6-0.2c-0.2,0-0.4,0.1-0.6,0.2c-0.1,0.2-0.2,0.4-0.2,0.7v4.6c0,0.3,0.1,0.6,0.2,0.8
						c0.2,0.2,0.4,0.3,0.6,0.3c0.2,0,0.4-0.1,0.6-0.3c0.1-0.2,0.2-0.4,0.2-0.8v-2.2c0-0.7,0.1-1.2,0.3-1.6c0.2-0.4,0.5-0.6,1-0.6
						c0.3,0,0.5,0.1,0.6,0.2c0.1,0.1,0.2,0.3,0.2,0.6c0,0.2,0,0.5,0,1v2.6c0,0.3,0.1,0.6,0.2,0.8c0.1,0.2,0.3,0.3,0.6,0.3
						c0.3,0,0.5-0.1,0.6-0.3c0.2-0.2,0.2-0.4,0.2-0.8v-2.2c0-0.7,0.1-1.2,0.2-1.5c0.1-0.2,0.3-0.4,0.5-0.5c0.2-0.1,0.4-0.2,0.6-0.2
						c0.3,0,0.5,0.1,0.6,0.2c0.1,0.1,0.2,0.3,0.2,0.5c0,0.2,0,0.5,0,0.8v2.7c0,0.3,0.1,0.6,0.2,0.8c0.2,0.2,0.4,0.3,0.6,0.3
						c0.3,0,0.5-0.1,0.6-0.3c0.2-0.2,0.2-0.4,0.2-0.8v-3.2c0-0.6-0.1-1.1-0.2-1.4C324.1,480.8,323.9,480.5,323.6,480.3z"/>
				</g>
				<g id="XMLID_424_">
					<path id="XMLID_437_" class="st33" d="M245.3,483C245.3,483,245.3,483,245.3,483C245.3,483,245.3,483,245.3,483z"/>
					<path id="XMLID_436_" class="st33" d="M245.4,483.5C245.4,483.5,245.4,483.5,245.4,483.5c0-0.1-0.1-0.3-0.1-0.4
						C245.3,483.2,245.3,483.3,245.4,483.5z"/>
					<path id="XMLID_435_" class="st33" d="M245.9,485C245.9,485,245.9,485,245.9,485C245.9,485,245.9,485,245.9,485z"/>
					<path id="XMLID_434_" class="st33" d="M245.8,484.9C245.8,484.9,245.8,484.8,245.8,484.9C245.8,484.8,245.8,484.9,245.8,484.9z
						"/>
					<path id="XMLID_433_" class="st33" d="M245.5,484.1c0.1,0.3,0.2,0.5,0.3,0.7C245.7,484.5,245.6,484.3,245.5,484.1L245.5,484.1z
						"/>
					<path id="XMLID_432_" class="st33" d="M250.7,476.2l-0.1-0.3c0.3-0.1,0.5-0.3,0.5-0.6c0-0.4-0.3-0.7-0.7-0.7
						c-0.4,0-0.7,0.3-0.7,0.7c0,0.3,0.2,0.6,0.5,0.6l0.1,0.3c-1,0.1-1.8,0.5-1.8,0.5l0.1,0.4c0.6-0.2,1.2-0.3,1.6-0.4
						c0.5-0.1,0.8-0.1,1.1-0.1c0.3,0,0.5,0,0.8,0.1l0.1-0.5C252.4,476.3,251.7,476.1,250.7,476.2z"/>
					<path id="XMLID_431_" class="st33" d="M245.5,478.7c0,0-0.5,0.5-0.9,1.3c0,0,0-0.1-0.1-0.1c-0.1-0.1-0.3-0.2-0.5-0.2
						c0,0,0,0,0,0c-0.1,0-0.2,0-0.3-0.1c0.1-0.1,0.1-0.2,0.1-0.3c0-0.2-0.2-0.4-0.4-0.4c-0.2,0-0.4,0.2-0.4,0.4
						c0,0.2,0.2,0.4,0.4,0.4c0,0,0.1,0,0.1,0c0.1,0.1,0.3,0.2,0.5,0.2c0.1,0,0.2,0,0.3,0.1c0.1,0.1,0.1,0.2,0.1,0.3c0,0,0,0,0,0
						c-0.3,0.7-0.2,1.7-0.2,1.7l0.7,0c0-0.3,0.1-0.9,0.2-1.4c0.3-0.9,0.7-1.5,0.8-1.5l0,0c0,0,0-0.1,0.1-0.1l-0.2-0.1L245.5,478.7z"
						/>
					<path id="XMLID_430_" class="st33" d="M257.3,477.3c-0.2,0-0.4,0.2-0.4,0.4c0,0,0,0.1,0,0.1c-0.1,0.1-0.2,0.3-0.2,0.5
						c0,0.1,0,0.2-0.1,0.3c-0.1,0-0.1,0.1-0.2,0.1c-0.5-0.7-1.1-1.1-1.1-1.1l-0.5,0.5c0.4,0.3,0.7,0.7,1.1,1.2
						c0.2,0.4,0.5,0.8,0.7,1.3l0.6-0.3c0,0-0.3-0.7-0.7-1.4c0.1,0,0.1-0.1,0.2-0.1c0.1-0.1,0.2-0.3,0.2-0.5c0-0.1,0-0.2,0.1-0.3
						c0.1,0.1,0.2,0.1,0.3,0.1c0.2,0,0.4-0.2,0.4-0.4C257.7,477.5,257.5,477.3,257.3,477.3z"/>
					<path id="XMLID_429_" class="st33" d="M255.6,483.1c-0.9,0.4-2.3,1-4.2,1.3c-0.7,0.1-1.5,0.1-2.1,0.1c-0.9,0-1.6-0.1-2.2-0.1
						c-0.7-0.1-1.2-0.2-1.5-0.3c0.1,0.2,0.2,0.5,0.3,0.7c0,0,0,0,0,0c0,0,0,0.1,0,0.1c0,0,0,0.1,0,0.1c0,0,0,0,0,0
						c0.2,0.4,0.4,0.7,0.7,1c0.9,1,1.8,1.1,1.8,1.1l0,0l0,0c0,0,0.8,0.3,2.1,0.3c1.2,0,2.4-0.2,3.5-0.7c0.8-0.4,1.6-1.1,2-1.7
						c0.3-0.5,0.5-0.9,0.7-1.4c0.1-0.3,0.1-0.7,0.1-1.1C256.6,482.6,256.2,482.8,255.6,483.1z"/>
					<path id="XMLID_425_" class="st33" d="M252.3,477.2c-0.3,0-0.5-0.1-0.8-0.1c-0.3,0-0.6,0-1.1,0.1c-0.5,0-1,0.2-1.6,0.4
						c-0.8,0.3-1.6,0.7-2.2,1.3l0,0c-0.1,0.1-0.3,0.3-0.5,0.5c0,0-0.4,0.6-0.7,1.4c-0.2,0.6-0.2,1.5-0.2,1.5v0c0,0.2,0,0.4,0,0.6
						c0,0,0,0,0,0c0,0,0,0.1,0,0.1c0,0.1,0,0.3,0.1,0.4c0.4,0.1,3,0.7,6,0.3c1.8-0.3,3.2-0.8,4.1-1.2c0.7-0.3,1.2-0.6,1.3-0.8
						c-0.2-0.6-0.7-1.7-1.1-2.3C254.4,477.7,253,477.3,252.3,477.2z M248.7,482.4c-1,0-1.8-0.8-1.8-1.8c0-1,0.8-1.8,1.8-1.8
						c1,0,1.8,0.8,1.8,1.8C250.4,481.6,249.7,482.4,248.7,482.4z M253.8,481.1c-0.6,0-1.1-0.5-1.1-1.1c0-0.6,0.5-1.1,1.1-1.1
						c0.6,0,1.1,0.5,1.1,1.1C254.9,480.6,254.4,481.1,253.8,481.1z"/>
				</g>
			</g>
		</g>
	</g>
</g>
</svg>
